<?xml version="1.0" standalone="no"?>
<!DOCTYPE svg PUBLIC "-//W3C//DTD SVG 1.1//EN" "http://www.w3.org/Graphics/SVG/1.1/DTD/svg11.dtd" >
<svg xmlns="http://www.w3.org/2000/svg" xmlns:xlink="http://www.w3.org/1999/xlink" version="1.1">
<metadata>
Created by FontForge 20161116 at Sun Mar 27 18:50:50 2016
 By Jimmy Warting
Copyright (c) 2016, Dario Manuel Muhafara, Ghiath Alsory (only Arabic glyphs), with Reserved Font Name "Sukar".
</metadata>
<defs>
<font id="Sukar-Bold" horiz-adv-x="1096" >
  <font-face 
    font-family="Sukar"
    font-weight="700"
    font-stretch="normal"
    units-per-em="2048"
    panose-1="2 0 5 0 0 0 0 0 0 0"
    ascent="1638"
    descent="-410"
    x-height="981"
    cap-height="1364"
    bbox="-336 -872 2988 1862"
    underline-thickness="150"
    underline-position="-292"
    unicode-range="U+001D-FEFC"
  />
<missing-glyph horiz-adv-x="1024" 
d="M100 0v1434h824v-1434h-824zM150 50h724v1334h-724v-1334zM325 1148q31 28 58 43q53 30 112 30q92 0 148 -47.5t56 -127.5q0 -49 -23 -98.5t-87 -129.5q-63 -80 -99 -132t-36 -99q0 -38 24 -133h-32q-35 97 -35 148q0 76 81.5 218t81.5 217q0 57 -33 90t-91 33
q-38 0 -69 -17q-26 -15 -56 -40v45zM389 334l57 58q11 10 20 10q10 0 22 -11l56 -60q9 -11 9 -20q0 -11 -10 -22l-56 -62q-14 -14 -21 -14q-11 0 -20 10l-61 71q-7 9 -7 18q0 10 11 22z" />
    <glyph glyph-name="uniFEF5" unicode="&#xfedf;&#xfe82;" horiz-adv-x="1197" arabic-form="isolated" 
d="M618 315q-36 -36 -124 -36q-56 0 -123 28q51 127 51 322v569q0 102 37 139t125 37q55 0 123 -28q-50 -127 -50 -322v-569q0 -103 -39 -140zM1069 1374q55 0 123 -28q-51 -127 -51 -322v-526q0 -215 -121 -351q-129 -147 -346 -147h-418q-127 0 -160 74q-6 13 -6 28
q0 48 60 109q51 -53 139 -53h385q231 0 231 342v698q0 102 37 139t127 37zM745 1575v-6q0 -45 -69 -82q-31 -14 -70 -14q-12 0 -22 2l-113 41q-41 0 -65 -62l-13 4q-57 19 -59 55v7q0 47 55 75q41 21 82 21q12 0 25 -2l110 -41q41 2 66 61l12 -2q57 -18 61 -57z" />
    <glyph glyph-name="uniFEF6" unicode="&#xfee0;&#xfe82;" horiz-adv-x="1378" arabic-form="final" 
d="M1382 158v-158h-10q-219 0 -348 152q-129 -152 -350 -152h-418q-127 0 -160 74q-6 13 -6 28q0 48 60 109q51 -53 139 -53h385q231 0 231 342v698q0 102 37 139t127 37q55 0 123 -28q-51 -127 -51 -322v-524q0 -152 55 -242q61 -100 178 -100h8zM618 315q-36 -36 -124 -36
q-56 0 -123 28q51 127 51 322v569q0 102 37 139t125 37q55 0 123 -28q-50 -127 -50 -322v-569q0 -103 -39 -140zM741 1575v-3q0 -47 -69 -83q-31 -16 -70 -16q-12 0 -24 2l-111 41q-41 0 -66 -62l-12 4q-57 19 -61 55v3q0 50 57 79q41 21 82 21q12 0 25 -2l110 -41
q41 4 66 61l12 -2q57 -18 61 -57z" />
    <glyph glyph-name="uniFEF7" unicode="&#xfedf;&#xfe84;" horiz-adv-x="1197" arabic-form="isolated" 
d="M618 315q-36 -36 -124 -36q-56 0 -123 28q51 127 51 322v569q0 102 37 139t125 37q55 0 123 -28q-50 -127 -50 -322v-569q0 -103 -39 -140zM1069 1374q55 0 123 -28q-51 -127 -51 -322v-526q0 -215 -121 -351q-129 -147 -346 -147h-418q-127 0 -160 74q-6 13 -6 28
q0 48 60 109q51 -53 139 -53h385q231 0 231 342v698q0 102 37 139t127 37zM733 1542q4 -9 4 -18q0 -8 -4 -17q-14 -34 -67 -34h-199q-21 0 -29 -7q-18 -10 -24 -34l-4 -21l-21 4q-49 10 -49 53q0 48 49 74q23 12 47 17q-18 38 -18 86q0 71 41 118q45 52 119 52h2
q49 0 84 -21q51 -25 51 -72q0 -22 -15 -36q-12 -13 -36 -19l-21 -2l-4 18q-6 25 -25 37q-8 6 -32 6h-4q-50 0 -50 -81q0 -84 50 -84h77q19 0 29 10l14 16l15 -16q14 -15 20 -29z" />
    <glyph glyph-name="uniFEF8" unicode="&#xfee0;&#xfe84;" horiz-adv-x="1378" arabic-form="final" 
d="M1382 158v-158h-10q-219 0 -348 152q-129 -152 -350 -152h-418q-127 0 -160 74q-6 13 -6 28q0 48 60 109q51 -53 139 -53h385q231 0 231 342v698q0 102 37 139t127 37q55 0 123 -28q-51 -127 -51 -322v-524q0 -152 55 -242q61 -100 178 -100h8zM459 1337q37 37 125 37
q55 0 123 -28q-50 -127 -50 -322v-569q0 -103 -39 -140q-36 -36 -124 -36q-56 0 -123 28q51 127 51 322v569q0 102 37 139zM389 1415q-49 10 -49 53q0 48 49 74q23 12 47 17q-18 38 -18 86q0 71 41 118q45 52 121 52q47 0 84 -19q51 -27 51 -74q0 -22 -15 -36
q-12 -13 -36 -19l-21 -2l-4 18q-4 25 -25 37q-10 6 -32 6h-4q-50 0 -50 -81q0 -82 50 -82h77q19 0 29 8l14 16l15 -16q14 -15 20 -29q4 -9 4 -18q0 -8 -4 -17q-14 -34 -67 -34h-199q-21 0 -29 -7q-18 -10 -24 -34l-4 -21z" />
    <glyph glyph-name="uniFEF9" unicode="&#xfedf;&#xfe88;" horiz-adv-x="1197" arabic-form="isolated" 
d="M618 315q-36 -36 -124 -36q-56 0 -123 28q51 127 51 322v569q0 102 37 139t125 37q55 0 123 -26q-50 -129 -50 -324v-569q0 -103 -39 -140zM1069 1374q55 0 123 -26q-51 -129 -51 -324v-526q0 -213 -121 -351q-129 -145 -346 -147h-418q-127 0 -160 76q-6 13 -6 27
q0 47 60 108q53 -53 145 -53h379q231 0 231 342v698q0 102 37 139t127 37zM696 -371q3 -8 3 -17q0 -8 -3 -18q-14 -34 -67 -34h-199q-20 0 -29 -4q-20 -13 -24 -37l-4 -21l-21 4q-49 11 -49 54q0 47 49 73q23 13 47 17q-20 39 -20 86q0 71 43 121q45 49 119 49q49 0 86 -19
q49 -26 49 -73q0 -23 -12 -37q-13 -13 -37 -17l-21 -4l-4 19q-6 26 -24 36q-11 7 -33 7h-4q-49 0 -49 -82t49 -82h77q19 0 29 8l15 16l14 -16q14 -14 20 -29z" />
    <glyph glyph-name="uniFEFA" unicode="&#xfee0;&#xfe88;" horiz-adv-x="1378" arabic-form="final" 
d="M1382 158v-158h-10q-219 0 -348 152q-129 -150 -350 -152h-418q-127 0 -160 76q-6 13 -6 27q0 47 60 108q53 -53 145 -53h379q231 0 231 342v698q0 102 37 139t127 37q55 0 123 -26q-51 -129 -51 -324v-524q0 -152 55 -242q61 -100 178 -100h8zM618 315q-36 -36 -124 -36
q-56 0 -123 28q51 127 51 322v569q0 102 37 139t125 37q55 0 123 -26q-52 -129 -52 -324v-569q0 -103 -37 -140zM696 -371q3 -9 3 -18q0 -8 -3 -17q-14 -34 -67 -34h-199q-20 0 -31 -4q-18 -13 -22 -37l-4 -21l-21 4q-49 11 -49 54q0 47 49 73q23 13 47 17q-20 39 -20 86
q0 71 43 121q45 49 119 49q49 0 86 -19q49 -26 49 -73q0 -23 -12 -37q-13 -13 -37 -17l-21 -4l-4 21q-6 24 -24 34q-11 7 -33 7h-4q-49 0 -49 -82t49 -82h77q19 0 29 8l15 16l14 -16q14 -14 20 -29z" />
    <glyph glyph-name="uniFEFB" unicode="&#xfedf;&#xfe8e;" horiz-adv-x="1197" arabic-form="isolated" 
d="M618 315q-36 -36 -124 -36q-56 0 -123 28q51 127 51 322v569q0 102 37 139t125 37q55 0 123 -28q-52 -127 -52 -322v-569q0 -103 -37 -140zM1069 1374q55 0 123 -28q-51 -127 -51 -322v-526q0 -215 -121 -351q-129 -147 -346 -147h-418q-127 0 -160 74q-6 13 -6 28
q0 48 60 109q51 -53 139 -53h385q231 0 231 342v698q0 102 37 139t127 37z" />
    <glyph glyph-name="uniFEFC" unicode="&#xfee0;&#xfe8e;" horiz-adv-x="1378" arabic-form="final" 
d="M1382 158v-158h-10q-219 0 -348 152q-129 -152 -350 -152h-418q-127 0 -160 74q-6 13 -6 28q0 48 60 109q51 -53 139 -53h385q231 0 231 342v698q0 102 37 139t127 37q55 0 123 -28q-51 -127 -51 -322v-524q0 -152 55 -242q61 -100 178 -100h8zM618 315q-36 -36 -124 -36
q-56 0 -123 28q51 127 51 322v569q0 102 37 139t125 37q55 0 123 -28q-50 -127 -50 -322v-569q0 -103 -39 -140z" />
    <glyph glyph-name="uniFC5E" unicode="&#x651;&#x64c;" horiz-adv-x="0" arabic-form="isolated" 
d="M233 242l-4 -13q-12 -28 -12 -75v-19q0 -57 -33 -94q-34 -41 -94 -41h-4q-51 0 -86 33q-35 -33 -86 -33h-2q-55 0 -92 37q-35 39 -35 98v62q0 30 12 43q13 14 39 14q17 0 35 -8l12 -4l-4 -13q-12 -28 -12 -75v-19q0 -72 45 -72h2q45 0 45 72v45q0 31 12 43q13 15 39 15
q17 0 35 -9l12 -4l-4 -12q-12 -29 -12 -76v-2q0 -72 45 -72h4q45 0 45 72v62q0 30 12 43q13 14 39 14q17 0 35 -8zM90 469q72 4 72 60v6q-4 52 -68 52q-7 0 -14 -1q-70 -6 -70 -58v-6l4 -59zM233 530q1 -7 1 -14q0 -56 -37 -94q-39 -41 -105 -45l-153 -12q-10 -1 -19 -1
q-109 0 -121 123q-5 64 -53 64q-23 0 -57 -16l-15 51q66 25 110 25q79 0 87 -81l2 -20q2 -58 41 -58q8 0 18 3l-4 53q-1 8 -1 16q0 54 38 92q39 39 105 46h14q56 0 96 -29q47 -37 53 -103z" />
    <glyph glyph-name="uniFC5F" unicode="&#x651;&#x64d;" horiz-adv-x="0" arabic-form="isolated" 
d="M238 258v-9q0 -21 -7 -46q-39 11 -89 11q-25 0 -52 -3l-223 -16q-11 -1 -21 -1q-28 0 -41 11q-18 14 -22 53v8q0 20 8 45q37 -11 86 -11q25 0 53 3l226 16q11 1 20 1q28 0 41 -11q16 -14 21 -51zM238 63v-8q0 -20 -7 -45q-37 11 -86 11q-26 0 -55 -3l-223 -16
q-13 -2 -25 -2q-25 0 -37 10q-18 15 -22 53v9q0 21 8 45q39 -10 89 -10q24 0 50 2l226 18q10 1 18 1q29 0 43 -11q16 -15 21 -54zM236 672l-7 -10q-10 -29 -10 -76v-21q0 -55 -33 -94q-34 -39 -94 -39h-6q-51 0 -84 31q-35 -31 -86 -31h-2q-57 0 -92 37q-35 39 -35 98v62
q0 30 12 43q13 12 39 12q17 0 35 -6l12 -6l-6 -10q-10 -29 -10 -76v-19q0 -71 45 -71h2q45 0 45 71v45q0 31 12 43q13 13 39 13q17 0 35 -6l12 -7l-6 -10q-10 -29 -10 -76v-2q0 -71 45 -71h4q45 0 45 71v62q0 30 13 43q12 12 38 12q17 0 35 -6z" />
    <glyph glyph-name="uniFC60" unicode="&#x651;&#x64e;" horiz-adv-x="0" arabic-form="isolated" 
d="M238 428v-8q0 -21 -9 -45q-38 10 -91 10q-23 0 -48 -2l-223 -18q-11 -1 -21 -1q-28 0 -41 11q-18 14 -22 53v8q0 20 8 45q37 -11 87 -11q25 0 54 3l224 19q9 1 17 1q30 0 44 -12q16 -14 21 -53zM236 240l-5 -11q-12 -28 -12 -75v-19q0 -57 -33 -94q-34 -41 -94 -41h-4
q-53 0 -86 33q-35 -33 -86 -33h-2q-57 0 -92 37q-35 39 -35 98v62q0 30 12 43q13 14 39 14q17 0 35 -8l12 -6l-6 -11q-10 -28 -10 -75v-19q0 -72 45 -72h2q43 0 45 72v45q0 31 12 43q13 15 39 15q17 0 35 -9l12 -4l-6 -12q-10 -29 -10 -74v-4q0 -72 45 -72h4q45 0 45 72v62
q0 30 13 43q12 14 38 14q17 0 35 -8z" />
    <glyph glyph-name="uniFC61" unicode="&#x651;&#x64f;" horiz-adv-x="0" arabic-form="isolated" 
d="M233 242l-4 -13q-12 -28 -12 -75v-19q0 -57 -33 -94q-34 -41 -94 -41h-4q-51 0 -86 31q-33 -31 -86 -31h-2q-55 0 -92 37q-35 39 -35 98v62q0 30 12 43q13 14 39 14q17 0 35 -8l12 -4l-4 -13q-12 -28 -12 -75v-19q0 -72 45 -72h2q45 0 45 72v45q0 31 12 43q13 15 41 15
q15 0 33 -9l12 -4l-4 -12q-12 -29 -12 -74v-4q0 -72 45 -72h4q45 0 45 72v62q0 30 12 43q13 14 41 14q15 0 33 -8zM92 475q74 6 74 62v6q-4 52 -68 52q-7 0 -14 -1q-70 -6 -70 -58v-6l4 -59zM238 539v-12q0 -60 -37 -97q-39 -41 -105 -47l-153 -10l-105 -8q-10 -2 -17 -2
q-17 0 -24 8q-12 10 -16 45v7q0 18 8 42q22 -6 61 -6h21l66 4l-5 53q-1 8 -1 16q0 55 36 93q41 39 107 45h13q57 0 97 -31q47 -35 54 -100z" />
    <glyph glyph-name="uniFC62" unicode="&#x651;&#x650;" horiz-adv-x="0" arabic-form="isolated" 
d="M236 63v-7q0 -20 -9 -46q-36 11 -84 11q-26 0 -55 -3l-223 -18q-10 -1 -19 -1q-30 0 -43 11q-18 15 -22 53v9q0 21 8 45q34 -9 81 -9q28 0 60 3l224 16q10 1 18 1q29 0 43 -11q16 -15 21 -54zM233 479l-4 -12q-12 -29 -12 -74v-20q0 -58 -33 -94q-34 -39 -94 -41h-4
q-53 0 -86 32q-35 -30 -86 -32h-2q-57 0 -92 38q-35 37 -35 97v63q0 31 12 43q13 13 39 13q17 0 35 -9l12 -4l-4 -12q-12 -29 -12 -74v-20q0 -72 45 -72h2q43 0 45 72v47q0 31 12 43q13 12 39 12q17 0 35 -8l12 -4l-6 -12q-10 -29 -10 -74v-4q0 -72 45 -72h4q45 0 45 72v63
q0 31 12 43q13 13 39 13q17 0 35 -9z" />
    <glyph glyph-name="uniFC63" unicode="&#x651;&#x64b;" horiz-adv-x="0" arabic-form="isolated" 
d="M238 621v-9q0 -20 -7 -45q-37 11 -86 11q-26 0 -55 -3l-223 -18q-10 -1 -19 -1q-30 0 -43 11q-18 15 -22 54v8q0 21 8 45q36 -11 85 -11q26 0 56 3l224 18q10 1 18 1q29 0 43 -11q16 -15 21 -53zM238 428v-9q0 -21 -7 -44q-38 11 -88 11q-25 0 -53 -3l-223 -18
q-11 -1 -21 -1q-28 0 -41 11q-18 14 -22 53v8q0 20 8 45q38 -11 88 -11q25 0 53 3l224 19q9 1 17 1q30 0 44 -12q16 -14 21 -53zM236 240l-7 -11q-10 -28 -10 -75v-19q0 -57 -33 -94q-34 -41 -94 -41h-4q-53 0 -86 33q-35 -33 -86 -33h-2q-57 0 -92 37q-35 39 -35 98v62
q0 30 12 43q13 14 39 14q17 0 35 -8l12 -6l-4 -11q-12 -28 -12 -75v-19q0 -72 45 -72h2q43 0 43 72v45q0 31 14 43q13 15 39 15q17 0 35 -9l12 -6l-6 -10q-10 -29 -10 -74v-4q0 -72 45 -72h4q43 0 45 72v62q0 30 13 43q12 14 38 14q17 0 35 -8z" />
    <glyph glyph-name="uniFDF2" unicode="&#xfedf;&#xfee0;&#xfeea;" horiz-adv-x="2565" arabic-form="isolated" 
d="M772 842h-233q-117 0 -176 -101q-55 -90 -55 -241q0 -150 55 -242q63 -100 176 -100q117 0 178 100q55 90 55 242v342zM2370 1374q55 0 123 -28q-49 -127 -49 -322v-526q-2 -215 -123 -351q-127 -147 -344 -147h-21q-219 0 -348 152q-129 -152 -350 -152h-19
q-219 0 -348 152q-129 -152 -352 -152q-215 0 -344 145q-123 140 -123 353q0 215 123 354q127 147 344 147h469v-499q0 -152 55 -242q60 -100 176 -100h19q231 0 231 342v499q0 103 37 140t127 37q55 0 123 -29q-51 -127 -51 -322v-325q0 -152 55 -242q61 -100 178 -100h17
q231 0 233 342v698q0 102 37 139t125 37zM1657 1587q-14 -14 -47 -14q-20 0 -45 10q20 47 20 119v94q0 39 13 51q14 15 47 15q20 0 45 -11q-19 -47 -19 -118v-95q0 -39 -14 -51zM1530 1253q-55 0 -90 39q-37 37 -37 97v63q0 31 12 43q15 12 41 12q15 0 35 -8l11 -4l-5 -12
q-12 -29 -12 -74v-20q0 -72 45 -72h2q45 0 45 72v47q0 30 13 43q14 12 41 12q16 0 34 -8l11 -4l-5 -13q-12 -28 -12 -73v-4q0 -72 45 -72h4q45 0 45 72v63q0 31 13 43q14 12 41 12q16 0 34 -8l11 -4l-4 -12q-13 -29 -13 -74v-20q0 -58 -32 -95q-35 -39 -95 -41h-4
q-51 0 -86 33q-33 -31 -86 -33h-2z" />
    <glyph glyph-name="uni0621" unicode="&#x621;" horiz-adv-x="1343" arabic-form="isolated" 
d="M1192 211q61 -59 61 -107q0 -14 -6 -28q-33 -76 -160 -76h-661q-92 0 -137 -29q-86 -53 -109 -166q-108 23 -108 111q0 117 125 184q100 56 241 58q-112 137 -112 344q0 215 123 352q129 147 344 147q147 -4 254 -59q129 -68 129 -182q0 -90 -113 -113q-23 113 -113 166
q-49 29 -143 31h-14q-113 0 -177 -101q-55 -92 -55 -243q0 -152 55 -242q60 -100 177 -100h256q92 0 143 53z" />
    <glyph glyph-name="uni0622" unicode="&#x622;" horiz-adv-x="556" arabic-form="isolated" 
d="M392 1374q53 0 121 -28q-50 -127 -50 -322v-848q0 -102 -37 -139q-36 -37 -126 -37q-56 0 -123 29q51 127 51 321v848q0 102 37 139t127 37zM551 1575v-6q0 -45 -69 -82q-29 -14 -70 -14q-10 0 -22 2l-111 41q-41 0 -65 -62l-13 4q-59 19 -61 55v6q0 46 55 76
q41 21 84 21q12 0 23 -2l110 -41q41 4 66 61l12 -4q59 -16 61 -55z" />
    <glyph glyph-name="uni0623" unicode="&#x623;" horiz-adv-x="571" arabic-form="isolated" 
d="M413 1374q56 0 123 -28q-51 -127 -51 -322v-848q0 -102 -37 -139t-127 -37q-53 0 -121 29q50 127 50 321v848q0 102 36 139q37 37 127 37zM563 1542q3 -9 3 -18q0 -8 -3 -17q-16 -34 -68 -34h-198q-23 0 -31 -7q-18 -10 -23 -34l-4 -21l-20 4q-49 10 -49 53q0 48 49 74
q22 12 47 17q-21 38 -21 86q0 71 43 118q46 52 119 52q49 0 86 -21q49 -25 49 -72q0 -22 -12 -36q-12 -13 -39 -19l-18 -4l-4 20q-6 25 -25 37q-10 6 -33 6h-4q-49 0 -49 -81q0 -84 49 -84h78q19 0 27 10l16 16l14 -16q15 -15 21 -29z" />
    <glyph glyph-name="uni0624" unicode="&#x624;" horiz-adv-x="1147" arabic-form="isolated" 
d="M840 500q0 151 -55 241q-62 101 -178 101q-113 0 -174 -101q-58 -92 -58 -241q0 -152 55 -242q60 -100 177 -100h233v342zM607 999q219 0 346 -145q123 -139 123 -354v-500q-2 -215 -123 -350q-127 -148 -344 -148h-150q-129 0 -160 74q-6 13 -6 28q0 48 60 109
q49 -53 138 -53h116q231 0 233 340h-233q-217 0 -344 147q-123 140 -123 353q0 215 123 354q129 145 344 145zM805 1184q4 -9 4 -18t-4 -17q-14 -35 -65 -35h-199q-22 0 -31 -6q-18 -10 -24 -37l-4 -20l-19 4q-49 10 -49 53q0 47 47 74q23 12 47 16q-18 39 -18 86
q0 74 41 121q45 51 121 51q49 -2 84 -20q51 -27 51 -74q0 -23 -14 -35q-13 -14 -37 -18l-21 -4l-4 20q-4 25 -25 37q-8 4 -30 4h-4q-52 0 -52 -82t50 -82h77q19 0 29 10l14 15l15 -15q14 -14 20 -28z" />
    <glyph glyph-name="uni0625" unicode="&#x625;" horiz-adv-x="538" arabic-form="isolated" 
d="M410 1374q56 0 123 -26q-51 -129 -51 -324v-848q0 -102 -37 -139t-125 -37q-55 0 -123 29q51 127 51 323v846q0 102 37 139t125 37zM523 -371q3 -9 3 -18q0 -8 -3 -17q-16 -34 -68 -34h-198q-21 0 -31 -4q-18 -13 -23 -37l-4 -21l-20 4q-49 11 -49 54q0 47 49 73
q22 13 47 17q-21 39 -21 86q0 71 43 121q46 49 119 49q49 0 86 -19q49 -26 49 -73q0 -23 -12 -37q-12 -13 -39 -17l-18 -4l-4 21q-6 24 -25 34q-10 7 -33 7h-4q-49 0 -49 -82t49 -82h78q19 0 27 8l16 16l14 -16q15 -14 21 -29z" />
    <glyph glyph-name="uni0626" unicode="&#x626;" horiz-adv-x="1526" arabic-form="isolated" 
d="M465 707q3 -9 3 -18t-3 -17q-16 -35 -68 -35h-198q-21 0 -31 -6q-18 -13 -23 -37l-4 -21l-20 5q-49 10 -49 55q0 47 49 72q22 12 47 18q-21 39 -21 86q0 72 43 119q46 51 119 51q49 -2 86 -21q49 -26 49 -73q0 -21 -12 -35t-39 -19l-18 -4l-4 21q-6 24 -25 37
q-10 4 -33 4h-4q-49 0 -49 -82t49 -82h78q19 0 27 10l16 15l14 -15q15 -14 21 -28zM1432 209q22 -23 34 -43q25 -34 25 -62v-4q0 -8 -2 -14q-33 -252 -211 -416q-186 -168 -457 -168h-4q-295 0 -487 199q-187 193 -187 479v174q0 103 37 140q37 36 125 36q55 0 123 -28
q-51 -127 -51 -322q0 -207 119 -356q127 -164 323 -164q152 0 264 100q105 90 150 240h-129q-213 0 -342 147q-121 140 -121 353q0 215 123 354q131 145 346 145q145 -2 252 -57q129 -70 129 -184q0 -90 -113 -111q-22 113 -112 166q-47 29 -142 29h-14q-115 0 -176 -101
q-57 -92 -57 -241q0 -152 55 -242q61 -100 178 -100h183q87 0 139 51z" />
    <glyph glyph-name="uni0627" unicode="&#x627;" horiz-adv-x="511" arabic-form="isolated" 
d="M383 1374q55 0 123 -28q-52 -127 -52 -322v-848q0 -102 -37 -139q-36 -37 -124 -37q-56 0 -123 29q49 127 49 321v848q0 102 39 139q37 37 125 37z" />
    <glyph glyph-name="uni0628" unicode="&#x628;" horiz-adv-x="1678" arabic-form="isolated" 
d="M1550 999q56 0 123 -28q-49 -127 -49 -322v-151q-2 -215 -123 -351q-127 -145 -344 -147h-618q-215 0 -344 147q-123 138 -123 353v176q0 102 37 139q36 37 127 37q53 0 120 -27q-49 -129 -49 -323v-2q0 -152 55 -242q60 -100 177 -100h616q234 0 234 342v323
q0 103 36 140q37 36 125 36zM961 -147q40 -37 40 -95q0 -57 -43 -94q-40 -39 -96 -39q-53 0 -94 39q-39 37 -39 94q0 56 41 95q41 38 96 38q56 0 95 -38z" />
    <glyph glyph-name="uni0629" unicode="&#x629;" horiz-adv-x="1013" arabic-form="isolated" 
d="M539 842q-117 0 -177 -101q-55 -90 -55 -241q0 -150 55 -242q64 -100 177 -100q116 0 178 100q55 90 55 242v342h-233zM1008 498q0 -215 -123 -353q-127 -145 -346 -145q-215 0 -344 145q-123 140 -123 353q0 215 123 354q129 147 344 147h469v-501zM659 1147
q-38 37 -38 94t41 94q40 39 96 39q55 0 94 -39q39 -37 39 -94q0 -55 -41 -94q-41 -37 -94 -37q-58 0 -97 37zM311 1147q-39 37 -39 94t41 94q41 39 97 39q55 0 94 -39q39 -37 39 -94q0 -55 -41 -94q-41 -37 -94 -37q-58 0 -97 37z" />
    <glyph glyph-name="uni062A" unicode="&#x62a;" horiz-adv-x="1678" arabic-form="isolated" 
d="M1550 999q56 0 123 -28q-49 -127 -49 -322v-151q-2 -215 -123 -351q-127 -147 -344 -147h-618q-215 0 -344 147q-123 138 -123 353v176q0 102 37 139q36 37 127 37q53 0 120 -27q-49 -129 -49 -323v-2q0 -152 55 -242q60 -100 177 -100h616q234 0 234 342v323
q0 103 36 140q37 36 125 36zM956 1147q-38 37 -38 94t40 96q41 37 97 37q55 0 94 -37q39 -39 39 -96q0 -55 -41 -94q-41 -37 -96 -37q-56 0 -95 37zM608 1147q-39 37 -39 94t41 96q41 37 97 37q55 0 94 -37q39 -39 39 -96q0 -55 -41 -94q-41 -37 -97 -37q-55 0 -94 37z" />
    <glyph glyph-name="uni062B" unicode="&#x62b;" horiz-adv-x="1678" arabic-form="isolated" 
d="M1550 999q56 0 123 -28q-49 -127 -49 -322v-151q-2 -215 -123 -351q-127 -147 -344 -147h-618q-215 0 -344 147q-123 138 -123 353v176q0 102 37 139q36 37 127 37q53 0 120 -27q-49 -129 -49 -323v-2q0 -152 55 -242q60 -100 177 -100h616q234 0 234 342v323
q0 103 36 140q37 36 125 36zM942 1147q-39 37 -39 94t41 96q41 37 96 37q56 0 95 -37q39 -39 39 -96q0 -55 -41 -94q-41 -37 -97 -37q-55 0 -94 37zM594 1147q-39 37 -39 94t41 96q41 37 96 37q56 0 94 -37q39 -39 39 -96q0 -55 -41 -94q-41 -37 -94 -37q-57 0 -96 37z
M768 1440q-39 39 -39 96q0 55 41 94t96 39q56 0 95 -39q38 -39 38 -94t-41 -94q-40 -39 -94 -39q-57 0 -96 37z" />
    <glyph glyph-name="uni062C" unicode="&#x62c;" horiz-adv-x="1025" arabic-form="isolated" 
d="M961 369q0 -168 52 -317q-48 -52 -138 -52h-500q-62 0 -103 -40q-42 -42 -43 -129q1 -88 43 -130q41 -40 103 -40h85q88 0 139 53q60 -61 60 -108q0 -15 -6 -28q-33 -75 -160 -75h-118q-124 0 -211 84q-91 88 -92 242v3q1 155 92 242q87 84 208 84h384q-23 124 -30 261
v192q2 29 2 54q0 57 -10 91q-13 43 -60 73q-34 21 -91 21q-132 0 -172 -19q-79 -37 -83 -132q-141 8 -141 109q0 96 100 141q112 51 266 51q240 0 333 -78q91 -76 91 -279v-274zM886 -103q39 -37 39 -95q0 -57 -41 -94q-41 -39 -96 -39q-56 0 -95 39q-39 37 -39 94
q0 56 41 95q41 36 95 36q57 0 96 -36z" />
    <glyph glyph-name="uni062D" unicode="&#x62d;" horiz-adv-x="1018" arabic-form="isolated" 
d="M961 369q0 -168 52 -317q-48 -52 -138 -52h-500q-62 0 -103 -40q-42 -42 -43 -129q1 -88 43 -130q41 -40 103 -40h205q88 0 139 53q60 -61 60 -108q0 -15 -6 -28q-33 -75 -160 -75h-238q-124 0 -211 84q-91 88 -92 242v3q1 155 92 242q87 84 208 84h384q-23 124 -30 261
v192q2 29 2 54q0 57 -10 91q-13 43 -60 73q-34 21 -91 21q-132 0 -172 -19q-79 -37 -83 -132q-141 8 -141 109q0 96 100 141q112 51 266 51q240 0 333 -78q91 -76 91 -279v-274z" />
    <glyph glyph-name="uni062E" unicode="&#x62e;" horiz-adv-x="1018" arabic-form="isolated" 
d="M467 1148q-39 37 -39 94q0 55 41 94t96 39q53 0 94 -39q39 -39 39 -94t-41 -94t-96 -39t-94 39zM961 369q0 -168 52 -317q-48 -52 -138 -52h-500q-62 0 -103 -40q-42 -42 -43 -129q1 -88 43 -130q41 -40 103 -40h205q88 0 139 53q60 -61 60 -108q0 -15 -6 -28
q-33 -75 -160 -75h-238q-124 0 -211 84q-91 88 -92 242v3q1 155 92 242q87 84 208 84h384q-23 124 -30 261v192q2 29 2 54q0 57 -10 91q-13 43 -60 73q-34 21 -91 21q-132 0 -172 -19q-79 -37 -83 -132q-141 8 -141 109q0 96 100 141q112 51 266 51q240 0 333 -78
q91 -76 91 -279v-274z" />
    <glyph glyph-name="uni062F" unicode="&#x62f;" horiz-adv-x="1083" arabic-form="isolated" 
d="M210 211q51 -53 139 -53h260q119 0 178 100q55 90 55 242q0 151 -57 241q-61 101 -176 101h-14q-95 0 -142 -29q-90 -53 -112 -166q-113 23 -113 111q0 116 129 184q106 55 252 57q215 0 346 -145q123 -139 123 -352q0 -215 -121 -355q-129 -145 -342 -147h-299
q-127 0 -160 74q-6 13 -6 28q0 48 60 109z" />
    <glyph glyph-name="uni0630" unicode="&#x630;" horiz-adv-x="1083" arabic-form="isolated" 
d="M517 1147q-39 37 -39 94t41 94q41 39 98 39q53 0 92 -39q39 -37 39 -94q0 -55 -41 -94q-41 -37 -94 -37q-57 0 -96 37zM210 211q51 -53 139 -53h260q119 0 178 100q55 90 55 242q0 151 -57 241q-61 101 -176 101h-14q-95 0 -142 -29q-90 -53 -112 -166q-113 23 -113 111
q0 116 129 184q106 55 252 57q215 0 346 -145q123 -139 123 -352q0 -215 -121 -355q-129 -145 -342 -147h-299q-127 0 -160 74q-6 13 -6 28q0 48 60 109z" />
    <glyph glyph-name="uni0631" unicode="&#x631;" horiz-adv-x="726" arabic-form="isolated" 
d="M532 999q55 0 123 -28q-52 -127 -52 -322v-649q-2 -215 -120 -350q-129 -148 -346 -148h-41q-127 0 -160 74q-6 14 -6 29q0 47 59 108q51 -53 139 -53h9q231 0 231 340v823q0 103 37 140q37 36 127 36z" />
    <glyph glyph-name="uni0632" unicode="&#x632;" horiz-adv-x="726" arabic-form="isolated" 
d="M532 999q55 0 123 -28q-52 -127 -52 -322v-649q-2 -215 -120 -350q-129 -148 -346 -148h-41q-127 0 -160 74q-6 14 -6 29q0 47 59 108q51 -53 139 -53h9q231 0 231 340v823q0 103 37 140q37 36 127 36zM419 1147q-39 37 -39 94t41 94q41 39 96 39q56 0 95 -39
q39 -37 39 -94q0 -55 -41 -94t-95 -39q-57 0 -96 39z" />
    <glyph glyph-name="uni0633" unicode="&#x633;" horiz-adv-x="2803" arabic-form="isolated" 
d="M2675 999q55 0 123 -28q-52 -127 -52 -322v-153q0 -213 -120 -351q-129 -145 -347 -145h-2q-219 0 -348 152q-127 -152 -350 -152h-258q-49 -223 -205 -356q-166 -142 -407 -142h-4q-293 0 -467 199q-166 188 -166 479v174q0 103 37 140q36 36 127 36q53 0 120 -28
q-49 -127 -49 -322q0 -213 96 -358q109 -162 304 -162q192 0 301 162q96 145 96 358v496q0 102 37 139t127 37q55 0 123 -29q-52 -127 -52 -321v-344h240q233 0 233 340v178q0 102 37 139t127 37q54 0 121 -29q-49 -127 -49 -321v-2q0 -152 53 -242q62 -100 178 -100
q232 0 234 340v325q0 103 37 140q37 36 125 36z" />
    <glyph glyph-name="uni0634" unicode="&#x634;" horiz-adv-x="2803" arabic-form="isolated" 
d="M2675 999q55 0 123 -28q-52 -127 -52 -322v-153q0 -213 -120 -351q-129 -145 -347 -145h-2q-217 0 -348 152q-127 -152 -350 -152h-258q-49 -223 -205 -356q-166 -142 -407 -142h-4q-293 0 -467 199q-166 188 -166 479v174q0 103 37 140q36 36 127 36q53 0 120 -28
q-49 -127 -49 -322q0 -213 96 -358q109 -162 302 -162q194 0 303 162q96 145 96 358v496q0 102 37 139t127 37q55 0 123 -29q-52 -127 -52 -321v-344h240q233 0 233 340v178q0 102 37 139t127 37q54 0 121 -29q-49 -127 -49 -321v-2q0 -152 53 -242q62 -100 178 -100
q232 0 234 340v325q0 103 37 140q37 36 125 36zM2034 1147q-39 37 -39 94q0 55 41 94t96 39t94 -39q39 -37 39 -94q0 -55 -41 -94t-96 -39t-94 39zM1686 1147q-39 37 -39 94t41 94q41 39 96 39t94 -39t39 -94t-41 -94t-96 -39q-56 0 -94 39zM1860 1440q-39 37 -39 96
q0 55 41 94q41 37 96 37t94 -37q39 -39 39 -94q0 -57 -41 -94q-41 -39 -96 -39q-56 0 -94 37z" />
    <glyph glyph-name="uni0635" unicode="&#x635;" horiz-adv-x="2413" arabic-form="isolated" 
d="M1944 158q231 0 231 342q0 151 -55 241q-62 101 -178 101q-80 0 -185 -51q-221 -107 -418 -390v-243h605zM1942 999q217 0 346 -145q120 -139 120 -354q0 -213 -118 -353q-129 -147 -346 -147h-623q-49 -223 -205 -356q-166 -142 -407 -142h-4q-293 0 -467 199
q-166 188 -166 479v174q0 103 37 140q36 36 127 36q53 0 120 -28q-49 -127 -49 -322q0 -213 96 -358q109 -162 304 -162q192 0 301 162q96 145 96 358v643q0 103 37 140q37 36 127 36q53 0 123 -28q-50 -125 -52 -316q64 72 131 131q115 99 232 152q123 57 240 61z" />
    <glyph glyph-name="uni0636" unicode="&#x636;" horiz-adv-x="2413" arabic-form="isolated" 
d="M1653 1147q-39 37 -39 94t41 94q41 39 98 39q53 0 92 -39t39 -94t-41 -94t-94 -39q-55 0 -96 39zM1944 158q231 0 231 342q0 151 -55 241q-62 101 -178 101q-80 0 -185 -51q-221 -107 -418 -390v-243h605zM1942 999q217 0 346 -145q120 -139 120 -354q0 -213 -118 -353
q-129 -147 -346 -147h-623q-49 -223 -205 -356q-166 -142 -407 -142h-4q-293 0 -467 199q-166 188 -166 479v174q0 103 37 140q36 36 127 36q53 0 120 -28q-49 -127 -49 -322q0 -213 96 -358q109 -162 304 -162q192 0 301 162q96 145 96 358v643q0 103 37 140q37 36 127 36
q55 0 123 -28q-52 -125 -52 -316q64 72 131 131q113 99 232 152q127 59 240 61z" />
    <glyph glyph-name="uni0637" unicode="&#x637;" horiz-adv-x="1654" arabic-form="isolated" 
d="M1184 158q229 0 229 342q0 151 -55 241q-60 101 -176 101q-80 0 -185 -51q-221 -107 -417 -390v-243h604zM1182 999q217 0 346 -145q121 -137 121 -352t-119 -355q-129 -145 -346 -147h-928q-127 0 -160 74q-6 13 -6 28q0 48 60 109q51 -53 139 -53h55v1040q0 102 37 139
t127 37q55 0 121 -28q-49 -127 -49 -322v-369q63 72 131 131q114 99 231 154q127 57 240 59z" />
    <glyph glyph-name="uni0638" unicode="&#x638;" horiz-adv-x="1654" arabic-form="isolated" 
d="M893 1147q-39 37 -39 94t41 94q41 39 96 39q56 0 94 -39q39 -37 39 -94q0 -55 -41 -94q-41 -37 -94 -37q-57 0 -96 37zM1182 158q231 0 231 342q0 151 -55 241q-60 101 -176 101q-80 0 -185 -51q-221 -107 -417 -390v-243h602zM1182 999q217 0 346 -145
q121 -137 121 -352t-119 -355q-129 -145 -346 -147h-928q-127 0 -160 74q-6 13 -6 28q0 48 60 109q51 -53 139 -53h55v1040q0 102 37 139t127 37q55 0 121 -28q-49 -127 -49 -322v-369q63 72 131 131q112 99 231 154q127 57 240 59z" />
    <glyph glyph-name="uni0639" unicode="&#x639;" horiz-adv-x="1135" arabic-form="isolated" 
d="M973 352q112 -22 112 -110q0 -117 -131 -185q-104 -55 -252 -57h-327q-62 0 -103 -41q-43 -41 -43 -129t43 -129q41 -41 103 -41h114q88 0 140 53q59 -61 59 -108q0 -15 -6 -29q-33 -74 -160 -74h-147q-125 0 -211 84q-92 88 -92 242v4q0 154 92 242q51 49 127 71
q-125 140 -125 355t123 354q131 145 346 145q147 -2 252 -59q131 -68 131 -182q0 -90 -115 -111q-22 113 -112 166q-48 29 -142 29h-14q-115 0 -176 -101q-58 -92 -58 -241q0 -152 56 -242q59 -100 176 -100h84q94 0 141 28q90 54 115 166z" />
    <glyph glyph-name="uni063A" unicode="&#x63a;" horiz-adv-x="1090" arabic-form="isolated" 
d="M524 1147q-39 37 -39 94q0 55 41 94t99 39q53 0 92 -39t39 -94t-41 -94t-94 -39q-58 0 -97 39zM973 352q112 -22 112 -110q0 -117 -131 -185q-104 -55 -252 -57h-327q-62 0 -103 -41q-43 -41 -43 -129t43 -129q41 -41 103 -41h114q88 0 140 53q59 -61 59 -108
q0 -15 -6 -29q-33 -74 -160 -74h-147q-125 0 -211 84q-92 88 -92 242v4q0 154 92 242q51 49 127 71q-125 140 -125 355t123 354q131 145 346 145q147 -2 252 -59q131 -68 131 -182q0 -90 -115 -111q-22 113 -112 166q-48 29 -142 29h-14q-115 0 -176 -101q-58 -92 -58 -241
q0 -152 56 -242q59 -100 176 -100h84q94 0 141 28q90 54 115 166z" />
    <glyph glyph-name="uni0641" unicode="&#x641;" horiz-adv-x="1963" arabic-form="isolated" 
d="M1489 1109q-56 0 -95 38q-39 37 -39 95q0 56 41 94t97 38q54 0 94 -38q39 -38 39 -94t-41 -94q-41 -39 -96 -39zM1490 157q117 0 178 101q55 90 55 242q0 150 -56 242q-62 100 -177 100q-116 0 -177 -100q-55 -90 -55 -242v-343h232zM1490 1000q216 0 345 -146
q123 -139 123 -353t-122 -354q-129 -147 -344 -147h-954q-215 0 -343 146q-122 139 -123 353v177q0 103 37 140t126 37q55 0 122 -29q-50 -127 -50 -322v-2q0 -152 55 -242q61 -101 178 -101h483v344q0 215 121 353q129 146 346 146z" />
    <glyph glyph-name="uni0642" unicode="&#x642;" horiz-adv-x="1428" arabic-form="isolated" 
d="M1190 500q0 151 -55 241q-62 101 -179 101q-114 0 -176 -101q-57 -92 -57 -241q0 -152 55 -242q62 -100 178 -100h234v342zM956 999q218 0 347 -145q120 -139 120 -354v-322q0 -284 -186 -477q-190 -199 -485 -199h-4q-297 0 -488 199q-188 193 -188 479v174
q0 103 37 140q36 36 127 36q53 0 120 -28q-49 -127 -49 -322q0 -207 119 -358q127 -162 324 -162q149 0 262 98q104 92 149 242h-207q-215 0 -344 147q-121 140 -121 353q0 215 123 354q129 145 344 145zM1042 1147q-38 37 -38 94q0 55 40 94q43 39 99 39q53 0 92 -39
q41 -39 41 -94t-41 -94q-43 -39 -96 -39q-56 0 -97 39zM696 1147q-41 37 -41 94q0 55 41 94q43 39 99 39q53 0 92 -39q41 -39 41 -94t-41 -94q-43 -39 -96 -39q-56 0 -95 39z" />
    <glyph glyph-name="uni0643" unicode="&#x643;" horiz-adv-x="1678" arabic-form="isolated" 
d="M1550 1374q56 0 123 -28q-49 -127 -49 -322v-526q-2 -215 -123 -351q-127 -147 -344 -147h-618q-215 0 -344 147q-123 138 -123 353v176q0 102 37 139q36 37 127 37q53 0 120 -27q-49 -129 -49 -323v-2q0 -152 55 -242q60 -100 177 -100h616q234 0 234 342v698
q0 102 36 139q37 37 125 37zM1065 897q3 -9 3 -18q0 -8 -3 -17q-16 -35 -68 -35h-198q-23 -2 -31 -6q-18 -12 -23 -37l-4 -20l-20 4q-49 10 -49 53q0 47 47 74q24 12 47 16q-18 39 -18 86q0 72 43 121q45 51 118 51q49 -2 86 -20q49 -27 49 -74q0 -22 -12 -35
q-12 -14 -39 -18l-18 -4l-4 20q-6 25 -25 35q-10 6 -33 6h-4q-49 0 -49 -82t49 -82h78q19 0 27 11l14 14l16 -14q15 -17 21 -29z" />
    <glyph glyph-name="uni0644" unicode="&#x644;" horiz-adv-x="1396" arabic-form="isolated" 
d="M1391 1346q-52 -127 -52 -322v-846q0 -289 -165 -477q-175 -199 -465 -199h-4q-293 0 -467 199q-166 188 -166 479v174q0 103 37 140q36 36 127 36q53 0 120 -28q-49 -127 -49 -322q0 -213 96 -356q109 -164 304 -164q192 0 301 164q96 143 96 356v1018q0 102 37 139
t127 37q55 0 123 -28z" />
    <glyph glyph-name="uni0645" unicode="&#x645;" horiz-adv-x="1371" arabic-form="isolated" 
d="M897 158q233 0 233 342q0 151 -55 241q-61 101 -178 101q-115 0 -176 -101q-55 -92 -55 -241q0 -152 53 -242q61 -100 178 -100zM897 999q217 0 346 -145q123 -139 123 -354t-121 -353q-129 -147 -350 -147q-338 0 -438 319q-15 -10 -29 -22q-72 -68 -72 -207v-412
q0 -102 -37 -139q-36 -37 -124 -37q-56 0 -123 29q49 127 49 322v278q0 219 123 320q75 63 186 84q10 200 133 329q127 135 334 135z" />
    <glyph glyph-name="uni0646" unicode="&#x646;" horiz-adv-x="1394" arabic-form="isolated" 
d="M1389 823q-50 -127 -50 -321v-324q0 -289 -165 -477q-175 -199 -465 -199h-7q-290 0 -464 199q-166 188 -166 479v174q0 103 37 140q36 36 127 36q53 0 120 -28q-49 -127 -49 -322q0 -213 96 -356q109 -164 302 -164q194 0 303 164q96 143 96 356v496q0 102 37 139
t127 37q55 0 121 -29zM629 537q-41 36 -41 96q0 55 41 94q43 37 98 37q53 0 92 -37q41 -39 41 -94q0 -58 -41 -94q-43 -39 -96 -39q-55 0 -94 37z" />
    <glyph glyph-name="uni0647" unicode="&#x647;" horiz-adv-x="1013" arabic-form="isolated" 
d="M539 842q-117 0 -177 -101q-55 -90 -55 -241q0 -150 55 -242q64 -100 177 -100q116 0 178 100q55 90 55 242v342h-233zM1008 498q0 -215 -123 -353q-127 -145 -346 -145q-215 0 -344 145q-123 140 -123 353q0 215 123 354q127 147 344 147h469v-501z" />
    <glyph glyph-name="uni0648" unicode="&#x648;" horiz-adv-x="1157" arabic-form="isolated" 
d="M850 500q0 151 -55 241q-62 101 -178 101q-113 0 -177 -101q-55 -92 -55 -241q0 -152 55 -242q60 -100 177 -100h233v342zM617 999q219 0 346 -145q123 -139 123 -354v-500q-2 -215 -123 -350q-127 -148 -344 -148h-150q-129 0 -162 74q-5 13 -5 26q0 49 61 111
q49 -53 138 -53h116q231 0 233 340h-233q-217 0 -344 147q-123 140 -123 353q0 215 123 354q129 145 344 145z" />
    <glyph glyph-name="uni0649" unicode="&#x649;" horiz-adv-x="1456" arabic-form="isolated" 
d="M1360 209q22 -21 37 -43q22 -34 22 -61v-5q0 -6 -2 -14q-31 -252 -211 -416q-186 -168 -454 -168h-4q-297 0 -488 199q-188 193 -188 479v174q0 103 37 140q36 36 127 36q53 0 120 -28q-49 -127 -49 -322q0 -207 117 -356q129 -164 326 -164q149 0 262 100
q104 90 149 240h-129q-213 0 -340 147q-121 140 -121 353q0 215 123 354q129 145 344 145q148 -2 254 -57q129 -70 129 -184q0 -90 -112 -111q-25 113 -115 166q-47 29 -141 29h-15q-114 0 -176 -101q-55 -92 -55 -241q0 -152 53 -242q62 -100 178 -100h183q90 0 139 51z
" />
    <glyph glyph-name="uni064A" unicode="&#x64a;" horiz-adv-x="1456" arabic-form="isolated" 
d="M825 -836q-41 37 -41 97q0 55 41 94q41 37 99 37q53 0 92 -37q41 -39 41 -94q0 -58 -41 -95q-43 -38 -96 -38q-56 0 -95 36zM477 -836q-41 37 -41 97q0 55 41 94q43 37 98 37q54 0 93 -37q41 -39 41 -94q0 -58 -41 -95q-43 -38 -97 -38q-55 0 -94 36zM1360 209
q22 -21 37 -43q22 -34 22 -61v-5q0 -6 -2 -14q-31 -252 -211 -416q-186 -168 -454 -168h-4q-297 0 -488 199q-188 193 -188 479v174q0 103 37 140q36 36 127 36q53 0 120 -28q-49 -127 -49 -322q0 -207 117 -358q129 -162 326 -162q149 0 262 100q104 90 149 240h-129
q-213 0 -340 147q-121 140 -121 353q0 215 123 354q129 145 344 145q148 -2 254 -57q129 -70 129 -184q0 -90 -112 -111q-25 113 -115 166q-47 29 -141 29h-15q-114 0 -176 -101q-55 -92 -55 -241q0 -152 53 -242q62 -100 178 -100h183q90 0 139 51z" />
    <glyph glyph-name="uniFE82" unicode="&#x622;" horiz-adv-x="639" arabic-form="final" 
d="M643 158v-158h-10q-213 0 -342 147q-123 138 -123 353v698q0 102 37 139t127 37q53 0 121 -28q-50 -127 -50 -322v-524q0 -152 54 -242q61 -100 178 -100h8zM487 1575v-6q0 -45 -69 -80q-29 -16 -70 -16q-10 0 -22 2l-111 41q-41 0 -65 -62l-15 4q-57 19 -59 55v7
q0 47 55 75q41 21 84 21q12 0 23 -2l110 -41q41 4 66 61l12 -2q57 -18 61 -57z" />
    <glyph glyph-name="uniFE84" unicode="&#x623;" horiz-adv-x="645" arabic-form="final" 
d="M649 158v-158h-10q-215 0 -342 147q-123 138 -123 353v698q0 102 37 139q36 37 124 37q56 0 123 -28q-49 -127 -49 -322v-524q0 -152 53 -242q62 -100 179 -100h8zM483 1542q3 -9 3 -18q0 -8 -3 -17q-16 -34 -68 -34h-198q-23 0 -31 -7q-18 -10 -23 -34l-4 -21l-20 4
q-49 10 -49 53q0 48 49 74q22 12 47 17q-21 38 -21 86q0 71 43 118q46 52 119 52q49 0 86 -19q49 -27 49 -74q0 -22 -12 -36q-12 -13 -37 -19l-20 -2l-4 18q-6 25 -25 37q-10 6 -33 6h-4q-49 0 -49 -81q0 -82 49 -82h78q19 0 27 8l16 16l14 -16q15 -15 21 -29z" />
    <glyph glyph-name="uniFE86" unicode="&#x624;" horiz-adv-x="1321" arabic-form="final" 
d="M840 500q0 151 -55 241q-62 101 -178 101q-113 0 -177 -101q-55 -92 -55 -241q0 -152 55 -242q60 -100 177 -100h233v342zM1332 158v-158h-256q-2 -215 -123 -350q-127 -148 -344 -148h-150q-129 0 -160 74q-6 13 -6 28q0 48 60 109q49 -53 138 -53h116q231 0 233 340
h-233q-215 0 -344 147q-123 140 -123 353q0 215 123 354q129 145 344 145q219 0 346 -145q123 -139 123 -354v-342h256zM805 1184q4 -9 4 -18t-4 -17q-14 -35 -65 -35h-199q-22 0 -31 -6q-18 -12 -24 -37l-4 -20l-21 4q-49 10 -49 53q0 47 49 74q23 12 47 16q-18 39 -18 86
q0 74 41 121q45 51 121 51q49 -2 84 -20q51 -27 51 -74q0 -23 -14 -35q-13 -14 -37 -18l-21 -4l-4 20q-4 25 -25 37q-8 4 -32 4h-2q-52 0 -52 -82t50 -82h77q19 0 29 10l14 15l15 -15q14 -14 20 -28z" />
    <glyph glyph-name="uniFE88" unicode="&#x625;" horiz-adv-x="657" arabic-form="final" 
d="M662 158v-158h-11q-213 0 -342 147q-123 138 -123 353v698q0 102 37 139t127 37q53 0 121 -26q-49 -129 -49 -324v-524q0 -152 53 -242q62 -100 178 -100h9zM465 -371q3 -9 3 -18q0 -8 -3 -17q-16 -34 -68 -34h-198q-21 0 -31 -4q-18 -13 -23 -37l-4 -21l-20 4
q-49 11 -49 54q0 47 49 73q20 13 47 17q-21 39 -21 86q0 71 43 121q46 49 119 49q49 0 86 -19q49 -26 49 -73q0 -23 -12 -37q-12 -13 -37 -17l-20 -4l-4 21q-6 24 -25 34q-10 7 -33 7h-4q-49 0 -49 -82t49 -82h78q19 0 27 8l16 16l14 -16q15 -14 21 -29z" />
    <glyph glyph-name="uniFE8A" unicode="&#x626;" horiz-adv-x="1658" arabic-form="final" 
d="M465 707q3 -9 3 -18t-3 -17q-16 -35 -68 -35h-198q-21 0 -31 -6q-18 -13 -23 -37l-4 -21l-20 5q-49 10 -49 55t49 72q22 12 47 18q-21 39 -21 86q0 72 43 119q46 51 119 51q49 -2 86 -21q49 -26 49 -73q0 -21 -12 -35t-37 -19l-20 -4l-4 21q-6 24 -25 37q-10 4 -33 4h-4
q-49 0 -49 -82t49 -82h78q19 0 29 10l14 15l14 -15q15 -14 21 -28zM1668 0h-204q-57 -221 -227 -356q-180 -142 -424 -142h-4q-295 0 -487 199q-187 193 -189 479v174q0 103 37 140q37 36 127 36q55 0 123 -28q-51 -127 -51 -322q0 -207 118 -358q127 -162 324 -162
q150 0 264 100q103 90 150 240h-160q-127 0 -160 74q-6 14 -6 28q0 48 59 107q52 -51 139 -51h571v-158z" />
    <glyph glyph-name="uniFE8B" unicode="&#x626;" horiz-adv-x="565" arabic-form="initial" 
d="M557 1169q3 -9 3 -17q0 -9 -3 -17q-16 -35 -68 -35h-198q-23 0 -31 -4q-18 -13 -22 -37l-5 -21l-20 4q-49 11 -49 54q0 47 47 73q22 13 47 17q-18 39 -18 86q0 71 43 119q45 51 118 51q50 0 86 -21q50 -24 50 -71q0 -23 -13 -37q-12 -13 -39 -19l-18 -2l-4 19
q-6 24 -25 37q-10 6 -32 6h-5q-49 0 -49 -82t49 -84h78q19 0 27 10l14 16l17 -16q14 -14 20 -29zM408 999q53 0 120 -28q-49 -127 -49 -322v-151q-2 -215 -123 -351q-127 -147 -344 -147h-114v158h112q234 0 234 342v323q0 103 37 140q36 36 127 36z" />
    <glyph glyph-name="uniFE8C" unicode="&#x626;" horiz-adv-x="725" arabic-form="medial" 
d="M557 1169q4 -9 4 -17q0 -9 -4 -17q-14 -35 -65 -35h-199q-23 0 -31 -4q-18 -13 -24 -37l-5 -21l-18 4q-51 11 -51 54q0 47 49 73q23 13 47 17q-18 39 -18 86q0 71 41 119q45 51 118 51h2q50 0 84 -21q52 -24 52 -71q0 -23 -15 -37q-12 -13 -37 -19l-20 -2l-4 19
q-4 26 -25 37q-8 6 -30 6h-7q-49 0 -49 -82t49 -84h78q19 0 29 10l14 16l15 -16q16 -14 20 -29zM731 158v-158h-20q-219 0 -349 152q-126 -152 -348 -152h-20v158h18q234 0 234 342v323q0 103 37 140q36 36 127 36q53 0 120 -28q-49 -127 -49 -322v-149q0 -152 54 -242
q61 -100 178 -100h18z" />
    <glyph glyph-name="uniFE8E" unicode="&#x627;" horiz-adv-x="621" arabic-form="final" 
d="M627 158v-158h-10q-215 0 -344 147q-123 138 -123 353v698q0 102 37 139q36 37 127 37q53 0 120 -28q-49 -127 -49 -322v-524q0 -152 55 -242q60 -100 177 -100h10z" />
    <glyph glyph-name="uniFE90" unicode="&#x628;" horiz-adv-x="1860" arabic-form="final" 
d="M1864 158v-158h-11q-217 0 -348 152q-127 -150 -348 -152h-618q-215 0 -344 147q-123 138 -123 353v176q0 102 37 139q36 37 127 37q53 0 120 -27q-49 -129 -49 -323v-2q0 -152 55 -242q60 -100 177 -100h616q234 0 234 342v323q0 103 36 140q37 36 127 36q54 0 121 -28
q-49 -127 -49 -322v-149q0 -152 53 -242q62 -100 178 -100h9zM961 -147q40 -37 40 -95q0 -57 -43 -94q-40 -39 -96 -39q-53 0 -92 39q-41 37 -41 94q0 56 41 95q41 38 96 38q56 0 95 -38z" />
    <glyph glyph-name="uniFE91" unicode="&#x628;" horiz-adv-x="594" arabic-form="initial" 
d="M401 999q54 0 121 -28q-49 -127 -49 -322v-151q-2 -215 -123 -351q-127 -147 -344 -147h-10v158h8q234 0 234 342v323q0 103 36 140q37 36 127 36zM354 -147q41 -37 41 -95q0 -57 -41 -94q-41 -39 -98 -39q-53 0 -92 39q-41 37 -41 94q0 56 41 95q43 36 96 36
q55 0 94 -36z" />
    <glyph glyph-name="uniFE92" unicode="&#x628;" horiz-adv-x="709" arabic-form="medial" 
d="M713 158v-158h-11q-219 0 -348 152q-127 -152 -348 -152h-10v158h8q234 0 234 342v323q0 103 36 140q37 36 125 36q56 0 123 -28q-49 -127 -49 -322v-149q0 -152 53 -242q62 -100 179 -100h8zM451 -147q38 -37 38 -95q0 -57 -40 -94q-41 -39 -97 -39q-55 0 -94 39
q-39 37 -39 94q0 56 41 95q41 36 96 36q56 0 95 -36z" />
    <glyph glyph-name="uniFE94" unicode="&#x629;" horiz-adv-x="1245" arabic-form="final" 
d="M772 842h-233q-117 0 -177 -101q-55 -90 -55 -241q0 -150 55 -242q64 -100 177 -100q116 0 178 100q55 90 55 242v342zM1249 158v-158h-10q-219 0 -348 152q-129 -152 -352 -152q-215 0 -344 145q-123 140 -123 353q0 215 123 354q129 147 344 147h469v-499
q0 -152 55 -242q59 -100 176 -100h10zM659 1147q-38 37 -38 94t41 94q40 39 96 39q55 0 94 -39q39 -37 39 -94q0 -55 -41 -94q-41 -37 -96 -37q-56 0 -95 37zM311 1147q-39 37 -39 94t41 94q41 39 97 39q55 0 94 -39q39 -37 39 -94q0 -55 -41 -94q-41 -37 -94 -37
q-58 0 -97 37z" />
    <glyph glyph-name="uniFE96" unicode="&#x62a;" horiz-adv-x="1860" arabic-form="final" 
d="M956 1147q-38 37 -38 94t40 96q41 37 97 37q55 0 94 -37q39 -39 39 -96q0 -55 -41 -94q-41 -37 -96 -37q-56 0 -95 37zM608 1147q-39 37 -39 94t41 96q41 37 97 37q55 0 94 -37q39 -39 39 -96q0 -55 -41 -94q-41 -37 -97 -37q-55 0 -94 37zM1864 158v-158h-11
q-219 0 -348 152q-127 -150 -348 -152h-618q-215 0 -344 147q-123 138 -123 353v176q0 102 37 139q36 37 127 37q53 0 120 -27q-49 -129 -49 -323v-2q0 -152 55 -242q60 -100 177 -100h616q231 0 234 342v323q0 103 36 140q37 36 125 36q56 0 123 -28q-49 -127 -49 -322
v-149q0 -152 53 -242q62 -100 178 -100h9z" />
    <glyph glyph-name="uniFE97" unicode="&#x62a;" horiz-adv-x="655" arabic-form="initial" 
d="M424 1147q-39 37 -39 94t41 96q41 37 96 37q56 0 94 -37q39 -39 39 -96q0 -55 -41 -94q-41 -37 -96 -37t-94 37zM76 1147q-39 37 -39 94t41 96q41 37 96 37t94 -37q39 -39 39 -96q0 -55 -41 -94q-41 -37 -96 -37t-94 37zM418 999q53 0 121 -28q-50 -127 -50 -322v-151
q-2 -215 -122 -351q-127 -147 -344 -147h-27v158h24q234 0 234 342v323q0 103 37 140q37 36 127 36z" />
    <glyph glyph-name="uniFE98" unicode="&#x62a;" horiz-adv-x="729" arabic-form="medial" 
d="M442 1147q-39 37 -39 94t41 96q41 37 99 37q53 0 92 -37q39 -39 39 -96q0 -55 -41 -94q-41 -37 -94 -37q-58 0 -97 37zM94 1147q-39 37 -39 94t41 96q41 37 99 37q53 0 92 -37q39 -39 39 -96q0 -55 -41 -94q-41 -37 -95 -37q-55 0 -96 37zM733 158v-158h-20
q-217 0 -348 152q-127 -150 -349 -152h-20v158h18q234 0 234 342v323q0 103 37 140q37 36 127 36q53 0 120 -28q-49 -127 -49 -322v-149q0 -152 54 -242q61 -100 178 -100h18z" />
    <glyph glyph-name="uniFE9A" unicode="&#x62b;" horiz-adv-x="1860" arabic-form="final" 
d="M1864 158v-158h-11q-219 0 -348 152q-127 -150 -348 -152h-618q-215 0 -344 147q-123 138 -123 353v176q0 102 37 139q36 37 127 37q53 0 120 -27q-49 -127 -49 -323v-2q0 -152 55 -242q60 -100 177 -100h616q234 0 234 342v323q0 103 36 140q37 36 125 36q56 0 123 -28
q-49 -127 -49 -322v-149q0 -152 53 -242q62 -100 178 -100h9zM942 1147q-39 37 -39 94t41 96q41 37 96 37q56 0 95 -37q39 -39 39 -96q0 -55 -41 -94q-41 -37 -97 -37q-55 0 -94 37zM594 1147q-39 37 -39 94t41 96q41 37 96 37q56 0 94 -37q39 -39 39 -96q0 -55 -41 -94
q-41 -37 -94 -37q-57 0 -96 37zM768 1440q-39 39 -39 96q0 55 41 94t96 39q56 0 95 -39q38 -39 38 -94t-41 -94q-40 -39 -94 -39q-57 0 -96 37z" />
    <glyph glyph-name="uniFE9B" unicode="&#x62b;" horiz-adv-x="710" arabic-form="initial" 
d="M418 999q53 0 121 -28q-50 -127 -50 -322v-151q-2 -215 -122 -351q-127 -147 -344 -147h-27v158h24q234 0 234 342v323q0 103 37 140q37 36 127 36zM473 1147q-39 37 -39 94t41 96q41 37 98 37q54 0 93 -37q39 -39 39 -96q0 -55 -41 -94q-41 -37 -95 -37q-57 0 -96 37z
M125 1147q-39 37 -39 94t41 96q41 37 98 37q54 0 92 -37q39 -39 39 -96q0 -55 -41 -94q-41 -37 -94 -37q-57 0 -96 37zM299 1440q-39 39 -39 96q0 55 41 94t98 39q54 0 93 -39q38 -39 38 -94t-41 -94q-40 -39 -94 -39q-57 0 -96 37z" />
    <glyph glyph-name="uniFE9C" unicode="&#x62b;" horiz-adv-x="729" arabic-form="medial" 
d="M733 158v-158h-20q-217 0 -348 152q-127 -150 -349 -152h-20v158h18q234 0 234 342v323q0 103 37 140q37 36 127 36q53 0 120 -28q-49 -127 -49 -322v-149q0 -152 54 -242q61 -100 178 -100h18zM442 1147q-39 37 -39 94t41 96q41 37 99 37q53 0 92 -37q39 -39 39 -96
q0 -55 -41 -94q-41 -37 -94 -37q-58 0 -97 37zM94 1147q-39 37 -39 94t41 96q41 37 99 37q53 0 92 -37q39 -39 39 -96q0 -55 -41 -94q-41 -37 -95 -37q-57 0 -96 37zM268 1440q-39 39 -39 96q0 55 41 94t99 39q53 0 92 -39t39 -94t-41 -94t-94 -39q-58 0 -97 37z" />
    <glyph glyph-name="uniFE9E" unicode="&#x62c;" horiz-adv-x="1217" arabic-form="final" 
d="M886 -104q39 -37 39 -95q0 -57 -41 -94q-41 -39 -96 -39q-56 0 -95 39q-39 37 -39 94q0 56 41 95q41 36 95 36q57 0 96 -36zM983 158h244v-158h-852q-62 -1 -103 -41q-42 -42 -43 -129q1 -88 43 -130q41 -40 103 -40h85q88 0 139 53q60 -61 60 -108q0 -15 -6 -28
q-33 -75 -160 -75h-118q-124 0 -211 84q-91 88 -92 242v3q1 155 92 242q87 84 208 84h384q-23 124 -30 261v192q2 29 2 54q0 57 -10 91q-13 43 -60 73q-34 21 -91 21q-132 0 -172 -19q-79 -37 -83 -132q-141 8 -141 109q0 96 100 141q112 51 266 51q240 0 333 -78
q91 -76 91 -279v-274q0 -109 22 -210z" />
    <glyph glyph-name="uniFE9F" unicode="&#x62c;" horiz-adv-x="1044" arabic-form="initial" 
d="M678 -147q39 -37 39 -95q0 -57 -41 -94q-41 -39 -96 -39q-56 0 -95 39q-39 37 -39 94q0 56 41 95q41 36 97 36q55 0 94 -36zM986 368q0 -168 53 -317q-49 -52 -138 -52h-911v158h792q-23 124 -30 261v192q2 28 2 51q0 60 -11 94q-13 43 -60 73q-34 21 -91 21
q-131 0 -172 -19q-78 -37 -82 -132q-141 8 -141 109q0 96 100 141q112 51 265 51q240 0 334 -78q90 -76 90 -279v-274z" />
    <glyph glyph-name="uniFEA0" unicode="&#x62c;" horiz-adv-x="1245" arabic-form="medial" 
d="M678 -147q39 -37 39 -95q0 -57 -41 -94q-41 -39 -96 -39q-56 0 -95 39q-39 37 -39 94q0 56 41 95q41 36 97 36q55 0 94 -36zM1008 158h247v-158h-330q-12 -1 -24 -1h-911v158h792q-23 124 -30 261v192q2 28 2 51q0 60 -11 94q-13 43 -60 73q-34 21 -91 21
q-131 0 -172 -19q-78 -37 -82 -132q-141 8 -141 109q0 96 100 141q112 51 265 51q240 0 334 -78q90 -76 90 -279v-274q0 -109 22 -210z" />
    <glyph glyph-name="uniFEA2" unicode="&#x62d;" horiz-adv-x="1217" arabic-form="final" 
d="M983 158h244v-158h-852q-62 -1 -103 -41q-42 -42 -43 -129q1 -88 43 -130q41 -40 103 -40h205q88 0 139 53q60 -61 60 -108q0 -15 -6 -28q-33 -75 -160 -75h-238q-124 0 -211 84q-91 88 -92 242v3q1 155 92 242q87 84 208 84h384q-23 124 -30 261v192q2 29 2 54
q0 57 -10 91q-13 43 -60 73q-34 21 -91 21q-132 0 -172 -19q-79 -37 -83 -132q-141 8 -141 109q0 96 100 141q112 51 266 51q240 0 333 -78q91 -76 91 -279v-274q0 -109 22 -210z" />
    <glyph glyph-name="uniFEA3" unicode="&#x62d;" horiz-adv-x="1044" arabic-form="initial" 
d="M986 368q0 -168 53 -317q-49 -52 -138 -52h-911v158h792q-23 124 -30 261v192q2 28 2 51q0 60 -11 94q-13 43 -60 73q-34 21 -91 21q-131 0 -172 -19q-78 -37 -82 -132q-141 8 -141 109q0 96 100 141q112 51 265 51q240 0 334 -78q90 -76 90 -279v-274z" />
    <glyph glyph-name="uniFEA4" unicode="&#x62d;" horiz-adv-x="1245" arabic-form="medial" 
d="M1008 158h247v-158h-330q-12 -1 -24 -1h-911v158h792q-23 124 -30 261v192q2 28 2 51q0 60 -11 94q-13 43 -60 73q-34 21 -91 21q-131 0 -172 -19q-78 -37 -82 -132q-141 8 -141 109q0 96 100 141q112 51 265 51q240 0 334 -78q90 -76 90 -279v-274q0 -109 22 -210z" />
    <glyph glyph-name="uniFEA6" unicode="&#x62e;" horiz-adv-x="1217" arabic-form="final" 
d="M467 1147q-39 37 -39 94q0 55 41 94t96 39q53 0 94 -39q39 -39 39 -94t-41 -94t-96 -39t-94 39zM983 158h244v-158h-852q-62 -1 -103 -41q-42 -42 -43 -129q1 -88 43 -130q41 -40 103 -40h205q88 0 139 53q60 -61 60 -108q0 -15 -6 -28q-33 -75 -160 -75h-238
q-124 0 -211 84q-91 88 -92 242v3q1 155 92 242q87 84 208 84h384q-23 124 -30 261v192q2 29 2 54q0 57 -10 91q-13 43 -60 73q-34 21 -91 21q-132 0 -172 -19q-79 -37 -83 -132q-141 8 -141 109q0 96 100 141q112 51 266 51q240 0 333 -78q91 -76 91 -279v-274
q0 -109 22 -210z" />
    <glyph glyph-name="uniFEA7" unicode="&#x62e;" horiz-adv-x="1044" arabic-form="initial" 
d="M492 1147q-39 37 -39 94t41 96q41 37 98 37q53 0 92 -37q39 -39 39 -96q0 -55 -41 -94q-41 -37 -94 -37q-58 0 -96 37zM986 368q0 -168 53 -317q-49 -52 -138 -52h-911v158h792q-23 124 -30 261v192q2 28 2 51q0 60 -11 94q-13 43 -60 73q-34 21 -91 21q-131 0 -172 -19
q-78 -37 -82 -132q-141 8 -141 109q0 96 100 141q112 51 265 51q240 0 334 -78q90 -76 90 -279v-274z" />
    <glyph glyph-name="uniFEA8" unicode="&#x62e;" horiz-adv-x="1245" arabic-form="medial" 
d="M485 1147q-39 37 -39 94t41 94q41 39 97 39q55 0 94 -39q39 -37 39 -94q0 -55 -41 -94q-41 -37 -96 -37q-56 0 -95 37zM1008 158h247v-158h-330q-12 -1 -24 -1h-911v158h792q-23 124 -30 261v192q2 28 2 51q0 60 -11 94q-13 43 -60 73q-34 21 -91 21q-131 0 -172 -19
q-78 -37 -82 -132q-141 8 -141 109q0 96 100 141q112 51 265 51q240 0 334 -78q90 -76 90 -279v-274q0 -109 22 -210z" />
    <glyph glyph-name="uniFEAA" unicode="&#x62f;" horiz-adv-x="1315" arabic-form="final" 
d="M1320 158v-158h-11q-221 0 -350 152q-127 -150 -344 -152h-299q-127 0 -160 74q-6 13 -6 28q0 48 60 109q51 -53 139 -53h262q117 0 176 100q55 90 55 242q0 151 -57 241q-61 101 -176 101h-14q-95 0 -142 -29q-90 -53 -112 -166q-113 23 -113 111q0 116 129 184
q104 55 252 57q215 0 346 -145q123 -139 123 -352v-2q0 -152 53 -242q62 -100 178 -100h11z" />
    <glyph glyph-name="uniFEAC" unicode="&#x630;" horiz-adv-x="1313" arabic-form="final" 
d="M517 1147q-39 37 -39 94t41 94q41 39 98 39q53 0 92 -39q39 -37 39 -94q0 -55 -41 -94q-41 -37 -94 -37q-57 0 -96 37zM1317 158v-158h-10q-219 0 -348 152q-127 -150 -344 -152h-299q-127 0 -160 74q-6 13 -6 28q0 48 60 109q51 -53 139 -53h260q117 0 178 100
q55 90 55 242q0 151 -57 241q-61 101 -176 101h-14q-95 0 -142 -29q-90 -53 -112 -166q-113 23 -113 111q0 116 129 184q106 55 252 57q215 0 346 -145q123 -139 123 -352v-2q0 -152 53 -242q62 -100 178 -100h8z" />
    <glyph glyph-name="uniFEAE" unicode="&#x631;" horiz-adv-x="819" arabic-form="final" 
d="M829 0h-225q-2 -215 -121 -350q-129 -148 -346 -148h-41q-127 0 -160 74q-6 13 -6 28q0 48 60 109q51 -53 139 -53h8q231 0 231 340v823q0 103 37 140q37 36 127 36q54 0 123 -28q-51 -127 -51 -322v-491h225v-158z" />
    <glyph glyph-name="uniFEB0" unicode="&#x632;" horiz-adv-x="821" arabic-form="final" 
d="M831 0h-227q-2 -215 -121 -350q-129 -148 -346 -148h-41q-127 0 -160 74q-6 13 -6 28q0 48 60 109q51 -53 139 -53h8q231 0 231 340v823q0 103 37 140q37 36 127 36q54 0 123 -28q-51 -127 -51 -322v-491h227v-158zM420 1147q-39 37 -39 94t41 94q41 39 96 39t94 -39
t39 -94t-41 -94t-94 -39q-57 0 -96 39z" />
    <glyph glyph-name="uniFEB2" unicode="&#x633;" horiz-adv-x="2984" arabic-form="final" 
d="M2988 158v-158h-10q-219 0 -348 152q-129 -152 -351 -152h-2q-219 0 -348 152q-127 -152 -350 -152h-258q-49 -223 -205 -356q-166 -142 -407 -142h-4q-293 0 -467 199q-166 188 -166 479v174q0 103 37 140q36 36 127 36q53 0 120 -28q-49 -127 -49 -322q0 -213 96 -358
q109 -162 304 -162q192 0 301 162q96 145 96 358v496q0 102 37 139t127 37q55 0 123 -29q-52 -127 -52 -321v-344h240q233 0 233 340v178q0 102 37 139t127 37q54 0 121 -29q-49 -127 -49 -321v-2q0 -152 53 -242q62 -100 178 -100q232 0 234 340v325q0 103 37 140
q37 36 125 36q55 0 123 -28q-52 -127 -52 -322v-151q2 -152 56 -242q61 -98 178 -98h8z" />
    <glyph glyph-name="uniFEB3" unicode="&#x633;" horiz-adv-x="1928" arabic-form="initial" 
d="M1800 999q55 0 123 -28q-51 -127 -51 -322v-151q0 -215 -121 -353q-129 -145 -346 -145h-2q-219 0 -348 152q-127 -152 -350 -152h-3q-219 0 -348 152q-127 -150 -348 -152h-10v158h8q234 0 234 342v176q0 102 36 139q37 37 125 37q56 0 123 -27q-49 -129 -49 -323v-2
q0 -152 53 -242q62 -100 179 -100q231 0 233 342v176q0 102 37 139t125 37q55 0 123 -27q-52 -129 -52 -323v-2q0 -152 56 -242q61 -100 178 -100q231 0 231 342v323q0 103 39 140q37 36 125 36z" />
    <glyph glyph-name="uniFEB4" unicode="&#x633;" horiz-adv-x="2109" arabic-form="medial" 
d="M2114 158v-158h-11q-219 0 -348 152q-129 -152 -350 -152h-2q-219 0 -348 152q-129 -152 -350 -152h-3q-219 0 -348 152q-127 -152 -348 -152h-10v158h8q234 0 234 342v176q0 102 36 139q37 37 127 37q54 0 121 -27q-49 -129 -49 -323v-2q0 -152 53 -242
q62 -100 179 -100q233 0 233 342v176q0 102 37 139t125 37q55 0 123 -27q-52 -129 -52 -323v-2q0 -152 56 -242q61 -100 178 -100q231 0 231 342v323q0 103 39 140q37 36 125 36q55 0 123 -28q-51 -127 -51 -322v-151q2 -152 55 -242q62 -98 178 -98h9z" />
    <glyph glyph-name="uniFEB6" unicode="&#x634;" horiz-adv-x="2984" arabic-form="final" 
d="M2034 1147q-39 37 -39 94t41 94q41 39 96 39q53 0 94 -39q39 -37 39 -94q0 -55 -41 -94t-96 -39t-94 39zM1686 1147q-39 37 -39 94t41 94q41 39 96 39t94 -39t39 -94t-41 -94t-96 -39q-56 0 -94 39zM1860 1440q-39 37 -39 96q0 55 41 94q41 37 96 37t94 -37
q39 -39 39 -94q0 -57 -41 -94q-41 -39 -96 -39q-56 0 -94 37zM2988 158v-158h-10q-219 0 -348 152q-127 -152 -351 -152h-2q-219 0 -348 152q-127 -152 -350 -152h-258q-49 -223 -205 -356q-166 -142 -407 -142h-7q-290 0 -464 199q-166 188 -166 479v174q0 103 37 140
q36 36 127 36q53 0 120 -28q-49 -127 -49 -322q0 -213 96 -358q109 -162 302 -162q194 0 303 162q96 145 96 358v496q0 102 37 139t127 37q53 0 123 -29q-52 -127 -52 -321v-344h240q233 0 233 340v178q0 102 37 139t127 37q54 0 121 -29q-49 -127 -49 -321v-2
q0 -152 53 -242q62 -100 178 -100q232 0 234 340v325q0 103 37 140q37 36 125 36q55 0 123 -28q-52 -127 -52 -322v-151q2 -152 56 -242q61 -98 178 -98h8z" />
    <glyph glyph-name="uniFEB7" unicode="&#x634;" horiz-adv-x="1928" arabic-form="initial" 
d="M1800 999q55 0 123 -28q-51 -127 -51 -322v-151q0 -215 -121 -353q-129 -145 -346 -145h-2q-219 0 -348 152q-129 -152 -350 -152h-3q-219 0 -348 152q-127 -150 -348 -152h-10v158h8q234 0 234 342v176q0 102 36 139q37 37 127 37q54 0 121 -27q-49 -129 -49 -323v-2
q0 -152 53 -242q62 -100 179 -100q231 0 233 342v176q0 102 37 139t125 37q55 0 123 -27q-52 -129 -52 -323v-2q0 -152 56 -242q61 -100 178 -100q231 0 233 342v323q0 103 37 140q37 36 125 36zM1157 1147q-39 37 -39 94t41 94q41 39 96 39q56 0 95 -39q39 -37 39 -94
q0 -55 -41 -94q-41 -37 -95 -37q-57 0 -96 37zM809 1147q-39 37 -39 94t41 94q41 39 98 39q54 0 92 -39q39 -37 39 -94q0 -55 -41 -94q-41 -37 -94 -37q-57 0 -96 37zM983 1440q-39 39 -39 96q0 55 41 94t96 39q56 0 95 -39q38 -39 38 -94t-40 -94q-41 -39 -95 -39
q-57 0 -96 37z" />
    <glyph glyph-name="uniFEB8" unicode="&#x634;" horiz-adv-x="2109" arabic-form="medial" 
d="M2114 158v-158h-11q-219 0 -348 152q-129 -152 -350 -152h-2q-219 0 -348 152q-127 -152 -350 -152h-3q-219 0 -348 152q-127 -152 -348 -152h-10v158h8q234 0 234 342v176q0 102 36 139q37 37 127 37q54 0 121 -27q-49 -129 -49 -323v-2q0 -152 53 -242
q62 -100 179 -100q231 0 233 342v176q0 102 37 139t125 37q55 0 123 -27q-52 -129 -52 -323v-2q0 -152 56 -242q61 -100 178 -100q231 0 231 342v323q0 103 39 140q37 36 125 36q55 0 123 -28q-51 -127 -51 -322v-151q2 -152 55 -242q62 -98 178 -98h9zM1159 1147
q-41 37 -41 94t41 94q43 39 98 39q54 0 95 -39q39 -37 39 -94q0 -55 -41 -94q-43 -37 -97 -37q-55 0 -94 37zM811 1147q-39 37 -39 94t41 94q41 39 96 39q54 0 95 -39q38 -37 38 -94q0 -55 -41 -94q-40 -37 -96 -37q-55 0 -94 37zM985 1440q-41 39 -41 96q0 55 43 94
q39 39 96 39q54 0 95 -39q39 -39 39 -94t-41 -94t-97 -39q-55 0 -94 37z" />
    <glyph glyph-name="uniFEBA" unicode="&#x635;" horiz-adv-x="2550" arabic-form="final" 
d="M1944 158q231 0 231 342q0 151 -55 241q-62 101 -178 101q-80 0 -185 -51q-221 -107 -418 -390v-243h605zM2554 158v-158h-80q-152 0 -266 76q-111 -76 -264 -76h-623q-51 -223 -205 -356q-166 -142 -407 -142h-4q-293 0 -467 199q-166 188 -166 479v174q0 103 37 140
q36 36 127 36q53 0 120 -28q-49 -127 -49 -322q0 -213 96 -358q109 -162 302 -162q194 0 303 162q96 145 96 358v643q0 103 37 140q37 36 127 36q53 0 123 -28q-52 -125 -52 -316q64 72 131 131q115 99 232 152q123 57 240 61q217 0 346 -145q120 -139 120 -354
q0 -207 -112 -342h258z" />
    <glyph glyph-name="uniFEBB" unicode="&#x635;" horiz-adv-x="1537" arabic-form="initial" 
d="M1067 158q229 0 229 342q0 151 -55 241q-59 101 -176 101q-80 0 -184 -51q-222 -107 -418 -390v-243h604zM1065 999q217 0 346 -145q121 -137 121 -352t-119 -355q-129 -145 -346 -147h-1071v158h231v665q0 103 37 140q37 36 127 36q53 0 121 -28q-49 -125 -49 -316
q63 72 131 131q113 99 231 154q123 55 240 59z" />
    <glyph glyph-name="uniFEBC" unicode="&#x635;" horiz-adv-x="1683" arabic-form="medial" 
d="M1081 158q232 0 232 342q0 151 -56 241q-61 101 -176 101q-80 0 -184 -51q-221 -107 -418 -390v-243h602zM1688 158v-158h-74q-154 0 -266 76q-113 -76 -265 -76h-1087v158h248v665q0 103 37 140q36 36 127 36q53 0 120 -28q-49 -125 -49 -316q64 74 131 131
q113 99 232 154q123 55 239 59q217 0 346 -145q121 -137 121 -352q0 -207 -112 -344h252z" />
    <glyph glyph-name="uniFEBE" unicode="&#x636;" horiz-adv-x="2550" arabic-form="final" 
d="M1653 1147q-39 37 -39 94t41 94q41 39 98 39q53 0 92 -39q39 -37 39 -94q0 -55 -41 -94t-94 -39q-57 0 -96 39zM1944 158q231 0 231 342q0 151 -55 241q-62 101 -178 101q-80 0 -185 -51q-221 -107 -418 -390v-243h605zM2554 158v-158h-80q-154 0 -264 76
q-113 -76 -266 -76h-623q-49 -223 -205 -356q-166 -142 -407 -142h-4q-293 0 -467 199q-166 188 -166 479v174q0 103 37 140q36 36 127 36q53 0 120 -28q-49 -127 -49 -322q0 -213 96 -358q109 -162 304 -162q192 0 301 162q96 145 96 358v643q0 103 37 140q37 36 127 36
q55 0 123 -28q-50 -125 -52 -316q64 72 131 131q113 99 232 152q127 59 240 61q217 0 346 -145q120 -139 120 -354q0 -207 -110 -342h256z" />
    <glyph glyph-name="uniFEBF" unicode="&#x636;" horiz-adv-x="1537" arabic-form="initial" 
d="M778 1147q-39 37 -39 94t41 94q43 39 99 39q53 0 92 -39q41 -37 41 -94q0 -55 -43 -94q-41 -37 -95 -37q-55 0 -96 37zM1065 158q231 0 231 342q0 151 -55 241q-59 101 -176 101q-80 0 -184 -51q-222 -107 -418 -390v-243h602zM1065 999q217 0 346 -145
q121 -137 121 -352t-119 -355q-129 -145 -346 -147h-1071v158h231v665q0 103 37 140q37 36 127 36q53 0 121 -28q-49 -125 -49 -316q63 72 131 131q113 99 231 154q127 57 240 59z" />
    <glyph glyph-name="uniFEC0" unicode="&#x636;" horiz-adv-x="1663" arabic-form="medial" 
d="M766 1147q-39 37 -39 94t41 94q41 39 96 39q56 0 94 -39q39 -37 39 -94q0 -55 -41 -94q-41 -37 -96 -37t-94 37zM1059 158q231 0 231 342q0 151 -55 241q-61 101 -176 101q-80 0 -185 -51q-223 -107 -417 -390v-243h602zM1667 158v-158h-76q-153 0 -266 78
q-113 -78 -264 -78h-1065v158h225v665q0 103 37 140q37 36 127 36q53 0 121 -28q-49 -125 -49 -316q61 72 131 131q112 99 231 154q125 57 240 59q217 0 346 -145q121 -137 121 -352q0 -207 -113 -344h254z" />
    <glyph glyph-name="uniFEC2" unicode="&#x637;" horiz-adv-x="1788" arabic-form="final" 
d="M1184 158q229 0 229 342q0 151 -55 241q-60 101 -176 101q-80 0 -185 -51q-221 -107 -417 -390v-243h604zM1792 158v-158h-78q-153 0 -266 78q-111 -78 -264 -78h-928q-127 0 -160 74q-6 13 -6 28q0 48 60 109q51 -53 139 -53h55v1040q0 102 37 139t127 37q55 0 121 -28
q-49 -127 -49 -322v-369q63 72 131 131q114 99 231 154q127 57 240 59q217 0 346 -145q121 -137 121 -352q0 -207 -113 -344h256z" />
    <glyph glyph-name="uniFEC3" unicode="&#x637;" horiz-adv-x="1533" arabic-form="initial" 
d="M1063 158q231 0 231 342q0 151 -55 241q-61 101 -178 101q-80 0 -184 -51q-222 -107 -418 -390v-243h604zM1061 999q217 0 346 -145q121 -137 121 -352t-119 -355q-129 -145 -346 -147h-1073v158h233v1040q0 102 37 139t127 37q55 0 123 -28q-51 -127 -51 -322v-369
q63 72 131 131q115 99 231 154q127 57 240 59z" />
    <glyph glyph-name="uniFEC4" unicode="&#x637;" horiz-adv-x="1645" arabic-form="medial" 
d="M1042 158q232 0 232 342q0 151 -55 241q-62 101 -179 101q-77 0 -184 -51q-221 -107 -418 -390v-243h604zM1649 158v-158h-76q-152 0 -264 78q-113 -78 -267 -78h-1052v158h215v1040q0 102 37 139t125 37q55 0 122 -28q-51 -127 -51 -322v-369q64 72 131 131
q115 99 234 154q125 57 239 59q218 0 344 -145q123 -137 123 -352q0 -207 -112 -344h252z" />
    <glyph glyph-name="uniFEC6" unicode="&#x638;" horiz-adv-x="1788" arabic-form="final" 
d="M893 1147q-39 37 -39 94t41 94q41 39 96 39q56 0 94 -39q39 -37 39 -94q0 -55 -41 -94q-41 -37 -94 -37q-57 0 -96 37zM1184 158q229 0 229 342q0 151 -55 241q-60 101 -176 101q-80 0 -185 -51q-221 -107 -417 -390v-243h604zM1792 158v-158h-78q-153 0 -266 78
q-111 -78 -264 -78h-928q-127 0 -160 74q-6 13 -6 28q0 48 60 109q51 -53 139 -53h55v1040q0 102 37 139t127 37q55 0 121 -28q-49 -127 -49 -322v-369q63 72 131 131q114 99 231 154q127 57 240 59q217 0 346 -145q121 -137 121 -352q0 -207 -113 -344h256z" />
    <glyph glyph-name="uniFEC7" unicode="&#x638;" horiz-adv-x="1531" arabic-form="initial" 
d="M774 1147q-39 37 -39 94t41 94q41 39 96 39q54 0 95 -39q39 -37 39 -94q0 -55 -41 -94q-41 -37 -97 -37q-55 0 -94 37zM1061 158q231 0 231 342q0 151 -55 241q-61 101 -178 101q-80 0 -185 -51q-221 -107 -417 -390v-243h604zM1059 999q217 0 346 -145
q121 -137 121 -352t-119 -355q-129 -145 -346 -147h-1071v158h231v1040q0 102 37 139t127 37q55 0 123 -28q-51 -127 -51 -322v-369q63 74 131 131q114 99 231 154q127 57 240 59z" />
    <glyph glyph-name="uniFEC8" unicode="&#x638;" horiz-adv-x="1645" arabic-form="medial" 
d="M754 1147q-41 37 -41 94t41 94q43 39 98 39q53 0 92 -39q41 -37 41 -94q0 -55 -41 -94q-43 -37 -96 -37q-55 0 -94 37zM1042 158q232 0 232 342q0 151 -55 241q-62 101 -179 101q-77 0 -184 -51q-221 -107 -418 -390v-243h604zM1649 158v-158h-76q-152 0 -264 78
q-113 -78 -267 -78h-1052v158h215v1040q0 102 37 139t125 37q55 0 122 -28q-51 -127 -51 -322v-369q64 72 131 131q115 99 234 154q125 57 237 59h2q218 0 344 -145q123 -137 123 -352q0 -207 -112 -344h252z" />
    <glyph glyph-name="uniFECA" unicode="&#x639;" horiz-adv-x="1372" arabic-form="final" 
d="M464 807l157 -649h45q231 2 231 342q0 151 -55 241q-62 101 -178 101zM375 0q-64 -2 -103 -41q-43 -41 -43 -129t43 -129q39 -39 103 -41h114q88 0 140 53q59 -61 59 -108q0 -15 -6 -29q-33 -74 -160 -74h-147q-125 0 -211 84q-92 88 -92 242v4q0 154 92 242
q86 84 209 84h14l-137 573q-21 90 -86 129q47 78 108 86l392 53q217 0 346 -145q120 -139 120 -354q0 -207 -110 -342h373v-158h-1018z" />
    <glyph glyph-name="uniFECB" unicode="&#x639;" horiz-adv-x="1125" arabic-form="initial" 
d="M1008 352q112 -22 112 -110q0 -115 -129 -185q-106 -55 -252 -57h-743v158h319q-112 137 -112 344q0 213 123 352q129 145 344 145q147 -2 254 -57q129 -68 129 -184q0 -88 -113 -111q-22 113 -115 166q-47 29 -141 29h-14q-113 0 -176 -101q-56 -90 -56 -241
q0 -152 54 -242q61 -100 178 -100h82q96 0 143 28q90 54 113 166z" />
    <glyph glyph-name="uniFECC" unicode="&#x639;" horiz-adv-x="1358" arabic-form="medial" 
d="M690 158q232 0 232 342q0 151 -56 241q-61 101 -176 101l-200 -33l156 -651h44zM1368 158v-158h-1378v158h424l-140 573q-20 92 -84 129q48 78 107 86l393 53q217 0 346 -145q121 -137 121 -352q0 -207 -113 -344h324z" />
    <glyph glyph-name="uniFECE" unicode="&#x63a;" horiz-adv-x="1372" arabic-form="final" 
d="M553 1147q-39 37 -39 94q0 55 41 94t98 39q54 0 92 -39q41 -39 41 -94t-43 -94q-41 -39 -94 -39q-55 0 -96 39zM464 807l157 -649h45q231 2 231 342q0 151 -55 241q-62 101 -178 101zM375 0q-62 0 -103 -41q-43 -41 -43 -129t43 -129q41 -41 103 -41h114q88 0 140 53
q59 -61 59 -108q0 -15 -6 -29q-33 -74 -160 -74h-147q-125 0 -211 84q-90 88 -92 242v4q2 154 92 242q86 84 209 84h14l-137 573q-21 90 -86 129q47 78 108 86l392 53q217 0 346 -145q120 -139 120 -354q0 -207 -110 -342h373v-158h-1018z" />
    <glyph glyph-name="uniFECF" unicode="&#x63a;" horiz-adv-x="1119" arabic-form="initial" 
d="M1001 352q113 -22 113 -110q0 -115 -129 -185q-106 -55 -252 -57h-743v158h319q-112 137 -112 344q0 213 122 352q130 145 345 145q147 -2 254 -57q129 -70 129 -184q0 -88 -113 -111q-23 113 -113 166q-49 29 -143 29h-14q-113 0 -177 -101q-55 -90 -55 -241
q0 -152 53 -242q62 -100 179 -100h81q97 0 144 28q90 54 112 166zM555 1147q-39 37 -39 94t41 94q41 39 96 39q56 0 95 -39q38 -37 38 -94q0 -55 -41 -94q-40 -37 -96 -37q-55 0 -94 37z" />
    <glyph glyph-name="uniFED0" unicode="&#x63a;" horiz-adv-x="1358" arabic-form="medial" 
d="M690 158q232 0 232 342q0 151 -56 241q-61 101 -176 101l-200 -33l156 -651h44zM1368 158v-158h-1378v158h424l-138 573q-22 92 -86 129q48 78 107 86l393 53q217 0 346 -145q121 -137 121 -352q0 -207 -113 -344h324zM580 1147q-39 37 -39 94t41 94q41 39 96 39
q53 0 94 -39q39 -37 39 -94q0 -55 -41 -94q-41 -37 -96 -37q-56 0 -94 37z" />
    <glyph glyph-name="uniFED2" unicode="&#x641;" horiz-adv-x="2221" arabic-form="final" 
d="M1490 157q117 0 178 101q55 90 55 242q0 150 -56 242q-62 100 -177 100q-116 0 -177 -100q-55 -90 -55 -242v-343h232zM2241 157v-157h-1703q-215 0 -343 146q-122 139 -123 353v177q0 103 37 140t126 37q55 0 122 -29q-50 -127 -50 -322v-2q0 -152 55 -242
q61 -101 178 -101h483v344q0 215 121 353q129 146 346 146q216 0 345 -146q123 -139 123 -353q0 -205 -115 -344h398zM1489 1109q-56 0 -95 38q-39 37 -39 95q0 56 41 94t97 38q54 0 94 -38q39 -38 39 -94t-41 -94q-41 -39 -96 -39z" />
    <glyph glyph-name="uniFED3" unicode="&#x641;" horiz-adv-x="1191" arabic-form="initial" 
d="M718 1109q-56 0 -96 38q-39 37 -39 95q0 56 41 94q42 38 97 38q54 0 94 -38q39 -38 39 -94t-41 -94q-41 -39 -95 -39zM719 157q117 0 178 101q54 90 54 242q0 150 -56 242q-62 100 -176 100q-117 0 -178 -100q-55 -90 -55 -242v-343h233zM719 1000q215 0 344 -146
q123 -139 123 -353t-122 -354q-128 -147 -344 -147h-740v157h271v344q0 215 122 353q128 146 346 146z" />
    <glyph glyph-name="uniFED4" unicode="&#x641;" horiz-adv-x="1425" arabic-form="medial" 
d="M704 157q117 0 178 101q54 90 54 242q0 150 -56 242q-62 100 -176 100q-117 0 -178 -100q-55 -90 -55 -242v-343h233zM1445 157v-157h-1470v157h261v344q0 215 122 353q128 146 346 146q215 0 344 -146q123 -139 123 -353q0 -205 -114 -344h388zM703 1109q-56 0 -96 38
q-39 37 -39 95q0 56 41 94q42 38 97 38q54 0 94 -38q39 -38 39 -94t-41 -94q-41 -39 -95 -39z" />
    <glyph glyph-name="uniFED6" unicode="&#x642;" horiz-adv-x="1657" arabic-form="final" 
d="M1042 1147q-38 37 -38 94q0 55 40 94q43 39 99 39q53 0 92 -39q41 -39 41 -94t-43 -94q-41 -39 -94 -39q-56 0 -97 39zM694 1147q-39 37 -39 94q0 55 41 94q43 39 99 39q53 0 92 -39q41 -39 41 -94t-41 -94q-43 -39 -96 -39q-56 0 -97 39zM1190 500q0 151 -55 241
q-62 101 -179 101q-114 0 -176 -101q-57 -92 -57 -241q0 -152 55 -242q62 -100 178 -100h234v342zM1677 0h-276q-55 -221 -227 -356q-179 -142 -422 -142h-4q-297 0 -488 199q-188 193 -188 479v174q0 103 37 140q36 36 127 36q53 0 120 -28q-49 -127 -49 -322
q0 -207 117 -358q129 -162 326 -162q149 0 262 98q104 92 149 242h-207q-215 0 -344 147q-121 140 -121 353q0 215 123 354q129 145 344 145q218 0 347 -145q120 -139 120 -354v-342h254v-158z" />
    <glyph glyph-name="uniFED7" unicode="&#x642;" horiz-adv-x="1191" arabic-form="initial" 
d="M903 1109q-56 0 -95 38q-39 37 -39 95q0 56 41 94t97 38q54 0 93 -38t39 -94t-41 -94q-41 -39 -95 -39zM555 1109q-56 0 -95 38q-39 37 -39 95q0 56 41 94t97 38q54 0 93 -38t39 -94t-41 -94q-41 -39 -95 -39zM719 157q117 0 178 101q54 90 54 242q0 150 -56 242
q-62 100 -176 100q-117 0 -178 -100q-55 -90 -55 -242v-343h233zM719 1000q215 0 344 -146q123 -139 123 -353t-122 -354q-128 -147 -344 -147h-740v157h271v344q0 215 122 353q128 146 346 146z" />
    <glyph glyph-name="uniFED8" unicode="&#x642;" horiz-adv-x="1425" arabic-form="medial" 
d="M898 1109q-56 0 -95 38q-39 37 -39 95q0 56 41 94t97 38q54 0 93 -38t39 -94t-41 -94q-41 -39 -95 -39zM550 1109q-56 0 -95 38q-39 37 -39 95q0 56 41 94t97 38q54 0 93 -38t39 -94t-41 -94q-41 -39 -95 -39zM704 157q117 0 178 101q54 90 54 242q0 150 -56 242
q-62 100 -176 100q-117 0 -178 -100q-55 -90 -55 -242v-343h233zM1445 157v-157h-1470v157h261v344q0 215 122 353q128 146 346 146q215 0 344 -146q123 -139 123 -353q0 -205 -114 -344h388z" />
    <glyph glyph-name="uniFEDA" unicode="&#x643;" horiz-adv-x="1860" arabic-form="final" 
d="M1864 158v-158h-11q-219 0 -348 152q-127 -152 -348 -152h-618q-215 0 -344 147q-123 138 -123 353v176q0 102 37 139q36 37 127 37q53 0 120 -27q-49 -129 -49 -323v-2q0 -152 55 -242q60 -100 177 -100h616q234 0 234 342v698q0 102 36 139q37 37 125 37q56 0 123 -28
q-49 -127 -49 -322v-524q0 -152 53 -242q62 -100 178 -100h9zM1065 897q3 -9 3 -18q0 -8 -3 -17q-16 -35 -68 -35h-198q-23 -2 -31 -6q-18 -12 -23 -37l-4 -20l-20 4q-49 10 -49 53q0 47 47 74q24 12 47 16q-18 39 -18 86q0 72 43 121q45 51 118 51q49 -2 86 -20
q49 -27 49 -74q0 -22 -12 -35q-12 -14 -39 -18l-18 -4l-4 20q-6 25 -25 35q-10 6 -33 6h-4q-49 0 -49 -82t49 -82h78q19 0 27 11l14 14l16 -14q15 -17 21 -29z" />
    <glyph glyph-name="uniFEDB" unicode="&#x643;" horiz-adv-x="1066" arabic-form="initial" 
d="M793 332q182 -154 268 -170q-51 -117 -103 -146q-28 -16 -53 -16h-915v158h694l-451 403q-34 33 -53 90q-7 24 -7 45q0 41 28 72l536 412q148 118 185 194q98 -69 112 -114q7 -21 7 -41q0 -53 -48 -95l-590 -452z" />
    <glyph glyph-name="uniFEDC" unicode="&#x643;" horiz-adv-x="1206" arabic-form="medial" 
d="M1217 158v-158h-1227v158h700l-452 403q-35 33 -54 90q-7 24 -7 45q0 41 28 72l536 412q148 118 185 194q96 -69 112 -117q7 -21 7 -40q0 -51 -48 -93l-589 -452l280 -242q180 -154 266 -170q-30 -72 -53 -102h316z" />
    <glyph glyph-name="uniFEDE" unicode="&#x644;" horiz-adv-x="1606" arabic-form="final" 
d="M1626 0h-305q-49 -223 -205 -356q-166 -142 -407 -142h-4q-293 0 -467 199q-166 188 -166 479v174q0 103 37 140q36 36 127 36q53 0 120 -28q-49 -127 -49 -322q0 -213 96 -358q109 -162 304 -162q192 0 301 164q96 143 96 356v1018q0 102 37 139t127 37q55 0 123 -28
q-52 -127 -52 -322v-866h287v-158z" />
    <glyph glyph-name="uniFEDF" unicode="&#x644;" horiz-adv-x="527" arabic-form="initial" 
d="M399 1374q56 0 123 -28q-49 -127 -49 -322v-526q-2 -215 -123 -351q-127 -147 -344 -147h-10v158h8q232 0 234 342v698q0 102 36 139q37 37 125 37z" />
    <glyph glyph-name="uniFEE0" unicode="&#x644;" horiz-adv-x="709" arabic-form="medial" 
d="M713 158v-158h-11q-219 0 -348 152q-127 -152 -348 -152h-10v158h8q234 0 234 342v698q0 102 36 139q37 37 127 37q54 0 121 -28q-49 -127 -49 -322v-524q0 -152 53 -242q62 -100 179 -100h8z" />
    <glyph glyph-name="uniFEE2" unicode="&#x645;" horiz-adv-x="1604" arabic-form="final" 
d="M897 158q233 0 233 342q0 151 -55 241q-61 101 -178 101q-113 0 -176 -101q-55 -92 -55 -241q0 -152 53 -242q61 -100 178 -100zM1608 158v-158h-11q-219 0 -350 152q-127 -152 -350 -152q-340 0 -440 319q-15 -10 -27 -22q-74 -66 -74 -207v-412q0 -102 -37 -139
q-36 -37 -124 -37q-56 0 -123 29q49 127 49 322v278q0 219 123 320q75 63 186 84q10 200 133 329q127 135 334 135q217 0 346 -145q123 -139 123 -354q0 -152 53 -242q62 -100 178 -100h11z" />
    <glyph glyph-name="uniFEE3" unicode="&#x645;" horiz-adv-x="1179" arabic-form="initial" 
d="M705 158q233 0 233 342q0 151 -55 241q-62 101 -178 101q-115 0 -177 -101q-55 -90 -55 -241q0 -152 53 -242q62 -100 179 -100zM705 999q217 0 346 -145q123 -137 123 -352q0 -217 -121 -355q-129 -147 -351 -147q-219 0 -348 152q-127 -152 -348 -152h-10v158h10
q232 0 232 342v2q0 213 122 352q129 145 345 145z" />
    <glyph glyph-name="uniFEE4" unicode="&#x645;" horiz-adv-x="1409" arabic-form="medial" 
d="M705 158q233 0 233 342q0 151 -55 241q-62 101 -178 101q-115 0 -177 -101q-55 -90 -55 -241q0 -152 53 -242q62 -100 179 -100zM1413 158v-158h-10q-219 0 -348 152q-129 -152 -353 -152q-219 0 -348 152q-127 -152 -348 -152h-10v158h10q232 0 232 342v2q0 213 122 352
q129 145 345 145q217 0 346 -145q123 -137 123 -352v-2q0 -152 53 -242q61 -100 178 -100h8z" />
    <glyph glyph-name="uniFEE6" unicode="&#x646;" horiz-adv-x="1606" arabic-form="final" 
d="M1626 0h-305q-49 -223 -205 -356q-166 -142 -407 -142h-4q-293 0 -467 199q-166 188 -166 479v174q0 103 37 140q36 36 127 36q53 0 120 -28q-49 -127 -49 -322q0 -213 96 -358q109 -162 304 -162q192 0 301 164q96 143 96 356v496q0 102 37 139t127 37q55 0 123 -29
q-52 -127 -52 -321v-344h287v-158zM629 537q-41 36 -41 96q0 55 41 94q43 37 98 37q53 0 92 -37q41 -39 41 -94q0 -58 -41 -94q-41 -39 -96 -39t-94 37z" />
    <glyph glyph-name="uniFEE7" unicode="&#x646;" horiz-adv-x="527" arabic-form="initial" 
d="M399 999q56 0 123 -28q-49 -127 -49 -322v-151q-2 -215 -123 -351q-127 -147 -344 -147h-10v158h8q234 0 234 342v323q0 103 36 140q37 36 125 36zM285 1147q-39 37 -39 94t41 94q41 39 96 39t94 -39q39 -37 39 -94q0 -55 -41 -94q-41 -37 -94 -37q-57 0 -96 37z" />
    <glyph glyph-name="uniFEE8" unicode="&#x646;" horiz-adv-x="709" arabic-form="medial" 
d="M713 158v-158h-11q-219 0 -348 152q-127 -152 -348 -152h-10v158h8q232 0 234 342v323q0 103 36 140q37 36 127 36q54 0 121 -28q-49 -127 -49 -322v-149q0 -152 53 -242q62 -100 179 -100h8zM283 1147q-39 37 -39 94t41 94q41 39 98 39q53 0 92 -39q39 -37 39 -94
q0 -55 -41 -94q-41 -37 -94 -37q-55 0 -96 37z" />
    <glyph glyph-name="uniFEEA" unicode="&#x647;" horiz-adv-x="1245" arabic-form="final" 
d="M772 842h-233q-117 0 -177 -101q-55 -90 -55 -241q0 -150 55 -242q64 -100 177 -100q116 0 178 100q55 90 55 242v342zM1249 158v-158h-10q-219 0 -348 152q-129 -152 -352 -152q-215 0 -344 145q-123 140 -123 353q0 215 123 354q129 147 344 147h469v-499
q0 -152 55 -242q59 -100 176 -100h10z" />
    <glyph glyph-name="uniFEEB" unicode="&#x647;" horiz-adv-x="1292" arabic-form="initial" 
d="M755 341q2 12 2 24q0 38 -23 73q-19 30 -50 38q-11 3 -21 3q-18 0 -31 -9q-22 -14 -27 -34q-4 -11 -4 -23q0 -8 2 -16q7 -42 86 -162q53 37 66 106zM820 1000q217 0 346 -146q121 -138 121 -353t-120 -353q-128 -147 -347 -148h-145l-38 64l-31 -64h-616v158h600
q-122 183 -166 286q-28 68 -28 116q0 46 24 92q24 45 91 89q42 29 98 29q32 0 67 -9q99 -25 167 -127q65 -98 65 -212q0 -37 -7 -76q-18 -99 -96 -188h15q232 0 232 342q0 151 -55 242q-61 100 -177 100h-423q-89 0 -139 -53q-60 61 -60 108q0 15 6 28q33 75 160 75h456z
" />
    <glyph glyph-name="uniFEEC" unicode="&#x647;" horiz-adv-x="1360" arabic-form="medial" 
d="M747 342q3 13 3 26q0 39 -23 74q-20 30 -52 38q-12 3 -23 3q-17 0 -31 -9q-22 -14 -27 -34q-4 -13 -4 -27q0 -6 1 -13q8 -44 90 -167q53 37 66 109zM1379 157v-157h-34q-154 0 -267 78q-113 -77 -268 -78h-143l-39 64l-31 -64h-617v157h600q-121 183 -166 287
q-29 69 -29 116q1 47 25 92t91 89q42 29 98 29q32 0 67 -9q99 -25 166 -127q66 -98 66 -212q0 -37 -7 -75q-18 -100 -96 -190h15q232 1 232 343q0 152 -55 242q-61 100 -178 100h-419q-91 0 -142 -52q-60 60 -60 107q0 15 6 28q32 75 160 75h456q217 0 346 -146
q121 -138 121 -353q0 -207 -112 -344h214z" />
    <glyph glyph-name="uniFEEE" unicode="&#x648;" horiz-adv-x="1323" arabic-form="final" 
d="M850 500q0 151 -55 241q-62 101 -178 101q-113 0 -177 -101q-55 -92 -55 -241q0 -152 55 -242q60 -100 177 -100h233v342zM1344 158v-158h-258q-2 -215 -123 -350q-127 -148 -344 -148h-150q-129 0 -160 74q-6 13 -6 28q0 48 60 109q49 -53 138 -53h116q231 0 233 340
h-233q-217 0 -344 147q-123 140 -123 353q0 215 123 354q129 145 344 145q219 0 346 -145q123 -139 123 -354v-342h258z" />
    <glyph glyph-name="uniFEF0" unicode="&#x649;" horiz-adv-x="1577" arabic-form="final" 
d="M1587 0h-186q-55 -221 -227 -356q-179 -142 -422 -142h-4q-297 0 -488 199q-188 193 -188 479v174q0 103 37 140q36 36 127 36q53 0 120 -28q-49 -127 -49 -322q0 -207 117 -358q129 -162 326 -162q149 0 262 98q104 92 149 242h-157q-127 0 -160 74q-6 14 -6 29
q0 47 59 106q51 -51 138 -51h552v-158z" />
    <glyph glyph-name="uniFEF2" unicode="&#x64a;" horiz-adv-x="1577" arabic-form="final" 
d="M823 -836q-39 37 -39 97q0 55 41 94q41 37 99 37q53 0 92 -37q41 -39 41 -94q0 -58 -43 -95q-41 -38 -94 -38q-56 0 -97 36zM477 -836q-41 37 -41 97q0 55 41 94q43 37 98 37q54 0 93 -37q41 -39 41 -94q0 -58 -41 -95q-43 -38 -97 -38q-55 0 -94 36zM1587 0h-186
q-55 -221 -227 -356q-179 -142 -422 -142h-4q-297 0 -488 199q-188 193 -188 479v174q0 103 37 140q36 36 127 36q53 0 120 -28q-49 -127 -49 -322q0 -207 117 -358q129 -162 326 -162q149 0 262 98q104 92 149 242h-157q-127 0 -160 74q-6 14 -6 29q0 47 59 106
q51 -51 138 -51h552v-158z" />
    <glyph glyph-name="uniFEF3" unicode="&#x64a;" horiz-adv-x="764" arabic-form="initial" 
d="M412 -338q-39 39 -39 96q0 56 41 95q41 36 98 36q53 0 92 -36q39 -39 39 -95q0 -57 -41 -94q-41 -39 -94 -39q-57 0 -96 37zM63 -338q-38 39 -38 96q0 56 41 95q40 36 98 36q53 0 92 -36q39 -39 39 -95q0 -57 -41 -94q-41 -39 -94 -39q-58 0 -97 37zM571 999
q56 0 121 -28q-49 -127 -49 -322v-151q-2 -215 -121 -351q-129 -147 -346 -147h-180v158h180q232 0 232 342v323q0 103 36 140q37 36 127 36z" />
    <glyph glyph-name="uniFEF4" unicode="&#x64a;" horiz-adv-x="729" arabic-form="medial" 
d="M442 -338q-39 39 -39 96q0 56 41 95q41 36 99 36q53 0 92 -36q39 -39 39 -95q0 -57 -41 -94q-41 -39 -94 -39q-58 0 -97 37zM94 -338q-39 39 -39 96q0 56 41 95q41 36 99 36q53 0 92 -36q39 -39 39 -95q0 -57 -41 -94q-41 -39 -95 -39q-57 0 -96 37zM733 158v-158h-20
q-219 0 -348 152q-127 -152 -349 -152h-20v158h18q234 0 234 342v323q0 103 37 140q37 36 127 36q53 0 120 -28q-49 -127 -49 -322v-149q0 -152 54 -242q61 -100 178 -100h18z" />
    <glyph glyph-name=".notdef" horiz-adv-x="1024" 
d="M100 0v1434h824v-1434h-824zM150 50h724v1334h-724v-1334zM325 1148q31 28 58 43q53 30 112 30q92 0 148 -47.5t56 -127.5q0 -49 -23 -98.5t-87 -129.5q-63 -80 -99 -132t-36 -99q0 -38 24 -133h-32q-35 97 -35 148q0 76 81.5 218t81.5 217q0 57 -33 90t-91 33
q-38 0 -69 -17q-26 -15 -56 -40v45zM389 334l57 58q11 10 20 10q10 0 22 -11l56 -60q9 -11 9 -20q0 -11 -10 -22l-56 -62q-14 -14 -21 -14q-11 0 -20 10l-61 71q-7 9 -7 18q0 10 11 22z" />
    <glyph glyph-name=".null" horiz-adv-x="0" 
 />
    <glyph glyph-name=".null" horiz-adv-x="0" 
 />
    <glyph glyph-name="nonmarkingreturn" horiz-adv-x="508" 
 />
    <glyph glyph-name="space" unicode=" " horiz-adv-x="508" 
 />
    <glyph glyph-name="space" unicode="&#xa0;" horiz-adv-x="508" 
 />
    <glyph glyph-name="exclam" unicode="!" horiz-adv-x="631" 
d="M328 270q61 0 104 -41t43 -104q0 -62 -45 -103.5t-106 -41.5q-60 0 -103 41.5t-43 103.5q0 61 45 103t105 42zM442 1309q-2 -78 -18 -243t-16 -278q0 -229 30 -311q-59 -26 -106 -26q-115 0 -117 102q-2 63 -3 219t-3 251t-10.5 207.5t-24.5 174.5q90 16 141 16
q127 0 127 -112z" />
    <glyph glyph-name="quotedbl" unicode="&#x22;" horiz-adv-x="809" 
d="M492 1423q0 39 37.5 61.5t93.5 22.5q49 0 82.5 -23.5t33.5 -74.5q0 -90 -39 -352q-20 -92 -110 -92q-33 0 -76 12q6 37 6 86q0 127 -14 233.5t-14 126.5zM86 1423q0 39 38 61.5t93 22.5q49 0 83 -23.5t34 -74.5q0 -90 -39 -352q-21 -92 -111 -92q-32 0 -75 12q6 37 6 86
q0 127 -14.5 233.5t-14.5 126.5z" />
    <glyph glyph-name="numbersign" unicode="#" 
d="M469 936h236q0 8 15 147.5t17 184.5q27 8 60 8q84 0 84 -78q0 -35 -43 -258q120 2 266 12q6 -26 6 -63q0 -105 -102 -105q-64 0 -197 11l-35 -240q152 6 273 16q4 -36 4 -71q0 -97 -105 -97q-80 0 -192 11q-17 -197 -17 -209q0 -74 6 -125q-43 -23 -77 -23q-72 0 -72 80
q0 66 37 283h-244q-18 -203 -18 -207q0 -70 6 -133q-41 -23 -78 -23q-72 0 -72 80q0 41 37 279q-125 -6 -256 -45q-14 51 -14 90q0 96 162 96h133l33 240q-136 -9 -259 -45q-16 57 -16 92q0 94 160 94l131 -2q31 328 31 332q30 8 63 8q80 0 80 -78q0 -55 -43 -262zM408 553
h247l33 248h-242z" />
    <glyph glyph-name="dollar" unicode="$" 
d="M481 -104v84q-164 4 -286.5 64t-122.5 142q0 84 118 140q35 -70 117 -120t174 -63v426q-82 25 -138 50.5t-115.5 72.5t-90.5 123t-31 180q0 158 103.5 254.5t269.5 120.5q-4 113 -8 137q31 6 47 6q76 0 76 -55v-80q137 -4 256 -58t119 -144q0 -107 -140 -136
q-26 66 -91.5 114t-143.5 63v-420q76 -21 118 -35t105.5 -45t97 -67t59 -94t25.5 -134q0 -207 -112.5 -312.5t-290.5 -123.5q4 -109 8 -142l-41 -4q-82 0 -82 56zM811 360q0 72 -55.5 110t-161.5 67v-392q96 13 156.5 66t60.5 149zM295 1018q0 -72 48 -115t138 -72v386
q-84 -13 -135 -63t-51 -136z" />
    <glyph glyph-name="percent" unicode="%" horiz-adv-x="1677" 
d="M1274 -20q-148 0 -234 94t-86 254q0 159 86 252.5t234 93.5q145 0 231 -93.5t86 -252.5q0 -160 -86 -254t-231 -94zM1393 313q0 90 -32 161t-87 71t-90 -56.5t-35 -140.5q0 -92 31.5 -164.5t91.5 -72.5q55 0 88 57t33 145zM485 -68q-147 23 -147 82q0 25 16 49l602 955
q136 213 244 407q143 -10 143 -86q0 -22 -14 -45l-600 -954q-137 -217 -244 -408zM406 668q-148 0 -234 94t-86 254t86 253t234 93q145 0 231 -93t86 -253t-86 -254t-231 -94zM524 1001q0 91 -31.5 161.5t-86.5 70.5q-56 0 -90.5 -56.5t-34.5 -140.5q0 -92 31.5 -164.5
t90.5 -72.5q56 0 88.5 57t32.5 145z" />
    <glyph glyph-name="ampersand" unicode="&#x26;" horiz-adv-x="1292" 
d="M655 1073q0 70 -34.5 120t-106.5 50q-156 0 -156 -164q0 -88 109 -266q92 61 140 120.5t48 139.5zM397 584q-94 -99 -94 -209q0 -113 75 -180.5t195 -67.5q91 0 162 47q-155 158 -338 410zM1071 489q0 -147 -65 -262q127 -82 229 -82q4 -24 4 -51q0 -49 -44 -81.5
t-138 -32.5q-82 0 -203 88q-137 -88 -309 -88q-187 0 -323 97t-136 269q0 123 59.5 207t163.5 158q-47 69 -98 155q-49 82 -49 195q0 145 105.5 231t269.5 86q149 0 233 -76.5t84 -183.5q0 -76 -26.5 -140.5t-83 -119.5t-94.5 -84t-107 -76q137 -198 311 -354q14 62 14 115
q0 88 -18 127q49 24 96 24q125 0 125 -121z" />
    <glyph glyph-name="quotesingle" unicode="'" horiz-adv-x="535" 
d="M102 1423q0 39 38 61.5t93 22.5q50 0 83.5 -23.5t33.5 -74.5q0 -90 -39 -352q-20 -92 -110 -92q-33 0 -76 12q6 37 6 86q0 127 -14.5 233.5t-14.5 126.5z" />
    <glyph glyph-name="parenleft" unicode="(" horiz-adv-x="721" 
d="M156 551q0 170 45 348t107.5 306t128 210t108.5 82q57 0 100 -61q-125 -140 -200.5 -389.5t-75.5 -495.5q0 -270 78.5 -512t197.5 -381q-43 -61 -100 -61q-43 0 -107.5 79.5t-128 205.5t-108.5 308.5t-45 360.5z" />
    <glyph glyph-name="parenright" unicode=")" horiz-adv-x="698" 
d="M541 543q0 -170 -45 -350.5t-107.5 -310.5t-128 -214t-108.5 -84q-58 0 -101 62q125 139 201 394t76 503q0 270 -79 511.5t-198 381.5q43 61 101 61q43 0 107.5 -80t128 -206t108.5 -308t45 -360z" />
    <glyph glyph-name="asterisk" unicode="*" horiz-adv-x="862" 
d="M543 1427q0 -49 -29 -163q133 94 180 141q90 -78 90 -135q0 -88 -252 -152q84 -78 224 -182q-23 -41 -62 -69.5t-84 -28.5q-49 0 -88 48t-94 152q-10 -18 -59.5 -107t-73.5 -128q-59 20 -105.5 56t-46.5 75q0 57 183 190q-201 72 -265 90q9 56 43.5 101t85.5 45
q33 0 82.5 -26.5t83.5 -63.5q-26 166 -41 233q64 19 101 19q127 0 127 -95z" />
    <glyph glyph-name="plus" unicode="+" 
d="M535 985q51 0 84.5 -24.5t33.5 -63.5q0 -41 -7 -155.5t-7 -149.5q213 0 369 20q12 -34 12 -80q0 -40 -29.5 -70t-77.5 -30q-39 0 -143 7t-133 7q0 -208 18 -389q-59 -12 -96 -12q-47 0 -83 22.5t-36 67.5q0 49 7.5 149.5t7.5 164.5q-191 -3 -371 -19q-8 41 -8 78
q0 39 25.5 69.5t80.5 30.5q45 0 130 -7t145 -7q0 217 -19 377q43 14 97 14z" />
    <glyph glyph-name="comma" unicode="," horiz-adv-x="498" 
d="M211 -59q0 92 -100 110q-21 39 -21 78q0 49 43 83t105 34q65 0 112 -49.5t47 -151.5q0 -135 -85 -247.5t-201 -112.5q-64 0 -64 77q0 21 2 31h10q66 0 109 45t43 103z" />
    <glyph glyph-name="hyphen" unicode="-" horiz-adv-x="532" 
d="M522 551q0 -43 -28.5 -68.5t-77.5 -25.5q-23 0 -74 5t-86 5q-90 0 -195 -23q-10 50 -10 82q0 39 25.5 67t81.5 28q14 0 71.5 -4.5t98.5 -4.5q98 0 180 21q14 -43 14 -82z" />
    <glyph glyph-name="period" unicode="." horiz-adv-x="487" 
d="M233 -20q-61 0 -104 40.5t-43 104.5q0 61 45 103t107 42q59 0 102 -42t43 -103q0 -62 -45 -103.5t-105 -41.5z" />
    <glyph glyph-name="slash" unicode="/" horiz-adv-x="539" 
d="M223 -236q-35 -6 -67 -6q-82 0 -82 58q0 4 4 27.5t17.5 106.5t31.5 199.5t57 357.5t84 529q39 236 64 473q30 11 63 11q84 0 84 -58q0 -8 -33 -211q-75 -473 -159 -1013q-54 -330 -64 -474z" />
    <glyph glyph-name="zero" unicode="0" 
d="M557 -20q-231 0 -368.5 189t-137.5 509q0 321 137.5 510.5t368.5 189.5t369.5 -189.5t138.5 -510.5q0 -318 -138.5 -508t-369.5 -190zM844 645q0 141 -30 269t-97.5 220.5t-157.5 92.5q-125 0 -206 -142.5t-81 -347.5q0 -151 30 -285.5t96.5 -227.5t158.5 -93
q129 0 208 147.5t79 366.5z" />
    <glyph glyph-name="one" unicode="1" 
d="M705 139q145 0 204 8q9 -28 9 -55q0 -96 -80 -96q-15 0 -136.5 2t-212.5 2q-176 0 -239 -2q-10 37 -10 61q0 86 118 86h131q0 37 2.5 217.5t2.5 329.5q0 289 -7 516q-217 -24 -247 -30q-7 30 -7 55q0 96 80 110q222 35 303 35q35 0 63 -22.5t28 -73.5q0 -4 -8.5 -247.5
t-8.5 -430.5q0 -340 15 -465z" />
    <glyph glyph-name="two" unicode="2" 
d="M213 1049q-47 6 -73.5 33.5t-26.5 66.5q0 80 135 154.5t291 74.5q168 0 289.5 -98t121.5 -276q0 -113 -39 -214.5t-131 -209t-187 -195.5t-265 -227q39 -2 159 -2q209 0 306.5 10t193.5 47q29 -61 29 -104q0 -64 -51 -84q-80 -29 -340 -29q-318 0 -447 4q-98 0 -98 96
q0 21 2 29q385 344 520 515t135 325q0 118 -68.5 188t-166.5 70q-80 0 -159 -48.5t-130 -125.5z" />
    <glyph glyph-name="three" unicode="3" 
d="M670 745q161 -61 218.5 -147t57.5 -209q0 -166 -135 -287.5t-373 -121.5q-145 0 -235 35.5t-90 97.5q0 41 26.5 67.5t69.5 32.5q63 -82 223 -82q139 0 216 79t77 181q0 109 -93 186.5t-259 77.5q-23 0 -34 2t-22.5 10.5t-15.5 27t-4 48.5q0 21 2 35q190 0 286.5 74
t96.5 174q0 80 -53.5 139.5t-141.5 59.5q-67 0 -133.5 -41t-105.5 -119q-47 0 -77 29.5t-30 70.5q0 70 119 141.5t266 71.5q179 0 278 -93t99 -222q0 -98 -57.5 -184t-175.5 -134z" />
    <glyph glyph-name="four" unicode="4" 
d="M674 1118q-197 -239 -389 -543q90 -6 186 -6q102 0 199 6q0 220 4 543zM664 1354q38 24 143 24q29 0 78 -4q0 -6 -4 -88t-9.5 -226.5t-5.5 -299.5v-178q152 12 201 34q16 -45 16 -94q0 -71 -41 -88q-49 -20 -178 -22q0 -291 43 -416q-45 -16 -110 -16q-76 0 -103.5 26.5
t-27.5 89.5q0 80 4 314q-432 0 -547 14q-47 6 -47 94q0 31 4 64q88 151 290.5 421.5t293.5 350.5z" />
    <glyph glyph-name="five" unicode="5" 
d="M766 1176q-160 0 -375 12l-29 -307q76 12 144 12q221 0 335.5 -118t114.5 -308q0 -209 -136 -348t-374 -139q-157 0 -243 37.5t-86 95.5q0 82 96 100q63 -82 215 -82q145 0 226 92t81 215q0 127 -94 218.5t-258 91.5q-84 0 -162 -11q-20 21 -20 99q0 30 26 524
q64 -4 432 -4q154 0 242 16q21 -37 21 -86q0 -110 -156 -110z" />
    <glyph glyph-name="six" unicode="6" 
d="M565 668q-121 0 -233 -121q2 -86 13 -152.5t36 -130t74 -97.5t118 -34q101 0 157 78t56 186q0 123 -62 197t-159 74zM557 -20q-125 0 -216 49t-139 135t-69.5 184t-21.5 215q0 207 76.5 389.5t238.5 304t375 121.5q90 0 90 -90q0 -18 -10 -74q-41 9 -88 9
q-199 0 -322 -159t-137 -384q125 141 307 141q152 0 259.5 -107.5t107.5 -283.5t-123 -313t-328 -137z" />
    <glyph glyph-name="seven" unicode="7" 
d="M121 66q166 174 361.5 520t293.5 598q-295 -8 -528 -8q-156 0 -156 110q0 35 21 86q102 -16 235 -16q531 0 639 4q17 -33 17 -76q0 -41 -13 -78q-37 -108 -219 -465.5t-328 -619.5q-77 -141 -165 -141q-82 0 -158 86z" />
    <glyph glyph-name="eight" unicode="8" 
d="M745 1075q0 66 -57 109t-137 43t-136.5 -43t-56.5 -109q0 -88 55.5 -148.5t164.5 -111.5q167 80 167 260zM551 131q108 0 172.5 68.5t64.5 160.5q0 109 -65.5 174.5t-218.5 135.5q-105 -64 -149 -130.5t-44 -179.5q0 -92 65.5 -160.5t174.5 -68.5zM553 -23
q-219 0 -338 114t-119 271q0 240 275 373q-221 139 -221 340q0 135 117.5 220t283.5 85t284.5 -85t118.5 -220q0 -203 -225 -307q281 -145 281 -406q0 -157 -119 -271t-338 -114z" />
    <glyph glyph-name="nine" unicode="9" 
d="M537 690q120 0 233 121q-2 86 -13.5 152.5t-36 130t-73.5 97.5t-119 34q-100 0 -156.5 -78t-56.5 -186q0 -123 62.5 -197t159.5 -74zM545 1378q125 0 216 -49t139 -135t69.5 -184.5t21.5 -214.5q0 -207 -76.5 -389.5t-238.5 -304t-375 -121.5q-90 0 -90 90q0 18 10 73
q41 -8 88 -8q199 0 322 159t137 384q-125 -141 -307 -141q-152 0 -259.5 107.5t-107.5 283.5t123 313t328 137z" />
    <glyph glyph-name="colon" unicode=":" horiz-adv-x="487" 
d="M236 680q-64 0 -107 44t-43 112q0 65 44 111t106 46q61 0 104 -46t43 -111q0 -68 -43 -112t-104 -44zM236 -20q-64 0 -107 44t-43 111q0 66 44 112t106 46q61 0 104 -46t43 -112q0 -67 -43 -111t-104 -44z" />
    <glyph glyph-name="semicolon" unicode=";" horiz-adv-x="530" 
d="M211 -59q0 92 -100 110q-21 39 -21 78q0 49 43 83t105 34q65 0 112 -49.5t47 -151.5q0 -135 -85 -247.5t-201 -112.5q-64 0 -64 77q0 21 2 31h10q66 0 109 45t43 103zM248 680q-64 0 -107 44t-43 112q0 65 44 111t106 46q61 0 104 -46t43 -111q0 -68 -43 -112t-104 -44z
" />
    <glyph glyph-name="less" unicode="&#x3c;" 
d="M850 893l-432 -375l432 -397q-16 -35 -54 -59.5t-77 -24.5q-47 0 -74 24l-450 457l452 432q27 27 72 27q43 0 80 -25.5t51 -58.5z" />
    <glyph glyph-name="equal" unicode="=" 
d="M975 332q0 -43 -30 -72t-77 -29q-61 0 -164.5 8.5t-148.5 8.5q-203 0 -424 -21q-10 49 -10 80q0 39 25.5 70t80.5 31q23 0 135.5 -7.5t188.5 -7.5q262 0 412 19q12 -37 12 -80zM975 733q0 -43 -30 -71.5t-77 -28.5q-61 0 -164.5 8t-148.5 8q-203 0 -424 -20
q-10 49 -10 80q0 39 25.5 69.5t80.5 30.5q23 0 135.5 -7t188.5 -7q262 0 412 18q12 -37 12 -80z" />
    <glyph glyph-name="greater" unicode="&#x3e;" 
d="M225 121l432 397l-432 375q17 33 53.5 58.5t79.5 25.5t74 -27l451 -432l-451 -457q-26 -24 -74 -24q-41 0 -77.5 23.5t-55.5 60.5z" />
    <glyph glyph-name="question" unicode="?" horiz-adv-x="817" 
d="M393 -20q-61 0 -104 40.5t-43 104.5q0 61 45 103t106 42q60 0 103 -42t43 -103q0 -62 -45 -103.5t-105 -41.5zM260 563q0 55 26.5 110.5t52.5 85t79 87.5q49 51 73.5 81.5t49 84t24.5 110.5q0 68 -36.5 101.5t-98.5 33.5q-68 0 -128 -43t-79 -112q-153 24 -153 108
q0 86 98 138.5t233 52.5q164 0 272.5 -73t108.5 -208q0 -78 -31.5 -146.5t-63.5 -104t-89 -87.5q-41 -37 -61.5 -59.5t-42 -64.5t-21.5 -83q0 -45 23 -112q-58 -35 -111 -35q-125 0 -125 135z" />
    <glyph glyph-name="at" unicode="@" horiz-adv-x="1751" 
d="M725 111q-102 0 -169 75.5t-67 214.5q0 209 115 357.5t283 148.5q190 0 327 -94q-75 -285 -75 -436q0 -107 65 -107q68 0 129.5 100.5t61.5 268.5q0 203 -106.5 314.5t-327.5 111.5q-181 0 -324 -106.5t-215 -261t-72 -316.5q0 -193 118 -321t347 -128q211 0 272 129
q119 -38 119 -104q0 -80 -116.5 -130t-290.5 -50q-316 0 -479.5 170t-163.5 422q0 149 58 296.5t163.5 269.5t268.5 197.5t355 75.5q271 0 431.5 -146.5t160.5 -371.5q0 -223 -139 -386t-287 -163q-137 0 -178 158q-108 -188 -264 -188zM944 410q8 47 20.5 156.5t16.5 138.5
q-53 51 -115 51q-78 0 -128 -83t-50 -220q0 -82 24.5 -134.5t67.5 -52.5q78 0 164 144z" />
    <glyph glyph-name="A" unicode="A" horiz-adv-x="1174" 
d="M766 561q-31 84 -60.5 175t-62.5 195.5t-45 143.5q-98 -309 -180 -512q131 -4 200 -4q107 0 148 2zM575 408q-53 0 -221 4q-133 -342 -164 -455q-182 20 -182 84q0 29 87 232.5t212 519t197 559.5q41 6 106 6q54 0 83.5 -21.5t51.5 -87.5q158 -491 230 -676
q153 -399 231 -553q-78 -40 -131 -40q-86 0 -119 55q-24 63 -68 187t-69 190q-201 -4 -244 -4z" />
    <glyph glyph-name="B" unicode="B" horiz-adv-x="1126" 
d="M471 1221q-39 0 -113 -9q9 -155 9 -415q53 -4 92 -4q307 0 307 211q0 217 -295 217zM553 137q111 0 186.5 68.5t75.5 187.5q0 133 -83 203t-206 70q-110 0 -161 -11q0 -88 -9.5 -241.5t-17.5 -202.5q33 -31 95.5 -52.5t119.5 -21.5zM121 109q33 233 33 684q0 381 -27 561
q158 24 342 24q233 0 381.5 -82t148.5 -270q0 -205 -178 -285q228 -96 228 -350q0 -194 -132.5 -302.5t-322.5 -108.5q-309 0 -473 129z" />
    <glyph glyph-name="C" unicode="C" horiz-adv-x="1247" 
d="M1059 317q45 -22 77.5 -58t32.5 -75q0 -84 -119.5 -144t-301.5 -60q-299 0 -480.5 193.5t-181.5 506.5q0 328 181.5 513t490.5 185q166 0 278.5 -64.5t112.5 -158.5q0 -49 -40 -86t-122 -49q-31 96 -109.5 146.5t-164.5 50.5q-174 0 -284 -141.5t-110 -356.5
q0 -248 112 -413t314 -165q93 0 179 44t135 132z" />
    <glyph glyph-name="D" unicode="D" horiz-adv-x="1307" 
d="M115 109q28 186 32 688q0 358 -26 557q129 24 330 24q165 0 297.5 -34.5t242 -111.5t170 -216t60.5 -334q0 -307 -170 -504.5t-486 -197.5q-291 0 -450 129zM352 1212q8 -133 8 -313q0 -424 -28 -684q98 -72 243 -72q115 0 199 46.5t128 123t64.5 159.5t20.5 173
q0 287 -134 431.5t-384 144.5q-39 0 -117 -9z" />
    <glyph glyph-name="E" unicode="E" horiz-adv-x="1006" 
d="M350 1194q8 -80 8 -383h154q164 0 233 8q9 -18 9 -65q0 -58 -20.5 -79.5t-65.5 -23.5q-52 -2 -138 -2h-172q0 -407 15 -489q86 -4 141 -4q328 0 424 45q16 -47 16 -109q0 -47 -18 -65q-39 -31 -350 -31q-279 0 -340 4q-64 2 -85.5 27.5t-21.5 89.5q0 39 2 168t2 198v398
q0 286 -28 465q223 18 456 18q303 0 342 -31q19 -18 19 -65q0 -62 -17 -111q-112 43 -356 43q-98 0 -209 -6z" />
    <glyph glyph-name="F" unicode="F" horiz-adv-x="932" 
d="M358 627v-226q0 -272 39 -401q-57 -20 -127 -20q-75 0 -103 26.5t-28 89.5q0 33 2 162t2 201v426q0 282 -28 461q223 18 456 18q303 0 342 -31q19 -18 19 -65q0 -62 -17 -111q-112 43 -356 43q-98 0 -209 -6q8 -64 8 -274v-132h154q164 0 233 9q9 -19 9 -66
q0 -57 -20.5 -78.5t-65.5 -23.5q-52 -2 -138 -2h-172z" />
    <glyph glyph-name="G" unicode="G" horiz-adv-x="1272" 
d="M1169 174q0 -74 -121.5 -134t-299.5 -60q-299 0 -480.5 193.5t-181.5 506.5q0 328 181.5 513t490.5 185q166 0 278.5 -64.5t112.5 -158.5q0 -108 -162 -135q-35 98 -110.5 147.5t-161.5 49.5q-174 0 -285 -142.5t-111 -355.5q0 -248 109 -413t301 -165q141 0 232 66
q-5 262 -15 430q47 6 101 6q137 0 137 -76l-8 -139q-7 -139 -7 -254z" />
    <glyph glyph-name="H" unicode="H" horiz-adv-x="1286" 
d="M129 473v410q0 284 -14 471q61 10 108 10q137 0 137 -78q0 -12 -4 -87t-8 -183.5t-4 -202.5q111 -2 291 -2t283 2v70q0 284 -15 471q62 10 109 10q137 0 137 -78q0 -12 -4 -82.5t-8 -176t-4 -200.5v-411q0 -273 38 -402q-57 -20 -127 -20q-75 0 -103 26.5t-28 90.5
q0 32 2.5 161t2.5 201v189q-105 -3 -289 -3q-180 0 -285 3v-246q0 -273 39 -402q-57 -20 -127 -20q-76 0 -103.5 26.5t-27.5 90.5q0 32 2 161t2 201z" />
    <glyph glyph-name="I" unicode="I" horiz-adv-x="498" 
d="M129 473v410q0 284 -14 471q61 10 108 10q137 0 137 -78q0 -12 -4 -82.5t-8 -176t-4 -200.5v-411q0 -273 39 -402q-57 -20 -127 -20q-76 0 -103.5 26.5t-27.5 90.5q0 32 2 161t2 201z" />
    <glyph glyph-name="J" unicode="J" horiz-adv-x="498" 
d="M25 -244q-91 0 -91 160q64 14 104 33.5t63.5 41t34.5 63.5t13.5 79t2.5 109v641q0 284 -15 471q62 10 113 10q133 0 133 -78q0 -10 -4 -75.5t-8 -163t-4 -185.5v-635q0 -131 -37 -229t-94.5 -147.5t-110.5 -72t-100 -22.5z" />
    <glyph glyph-name="K" unicode="K" horiz-adv-x="1075" 
d="M129 473v410q0 284 -14 471q61 10 108 10q137 0 137 -78q0 -10 -4 -72.5t-8 -171t-4 -229.5q141 109 297 270.5t215 278.5q59 -19 90 -41.5t31 -65.5q0 -30 -32 -78.5t-110.5 -126t-135 -130t-179.5 -162.5q27 -47 76 -134t74.5 -132.5t67.5 -113t70 -101t62.5 -71.5
t66.5 -53.5t64 -15.5q31 0 56 6q18 -37 18 -65q0 -47 -42 -72.5t-113 -25.5q-97 0 -185 82.5t-147.5 179t-198.5 356.5q-4 8 -7 12t-6 11.5t-7 13.5l-25 -19v-200q0 -273 39 -402q-57 -20 -127 -20q-76 0 -103.5 26.5t-27.5 90.5q0 32 2 161t2 201z" />
    <glyph glyph-name="L" unicode="L" horiz-adv-x="901" 
d="M129 459v424q0 288 -14 475q47 6 112 6q133 0 133 -78q0 -12 -4 -82.5t-8 -176t-4 -200.5v-176q0 -405 14 -491q82 -4 131 -4q302 0 390 47q22 -45 22 -101q0 -67 -52 -86.5t-173 -19.5h-178q-183 0 -273 4q-57 2 -78.5 28.5t-21.5 88.5q0 33 2 151.5t2 190.5z" />
    <glyph glyph-name="M" unicode="M" horiz-adv-x="1622" 
d="M1468 893v-477q0 -277 39 -406q-28 -16 -110 -16q-84 0 -113 26.5t-29 90.5v921q-135 -336 -344 -1028q-32 -8 -75 -8q-107 0 -131 53q-62 135 -183 484.5t-182 502.5v-620q0 -277 39 -406q-55 -16 -107 -16q-71 0 -96.5 26.5t-25.5 90.5q0 32 2 161t2 201v516
q0 230 -39 361q82 16 145 16q117 0 178 -98q78 -125 153 -312.5t114.5 -316.5t111.5 -371q172 647 381 1004q53 94 174 94q80 0 133 -16q-37 -123 -37 -457z" />
    <glyph glyph-name="N" unicode="N" horiz-adv-x="1266" 
d="M1147 2q-41 -8 -90 -8q-103 0 -137 55q-97 156 -294.5 502t-297.5 508l10 -535q6 -413 41 -514q-45 -16 -98 -16q-76 0 -103.5 26.5t-27.5 90.5q0 32 2 161t2 201v410q0 342 -39 467q51 16 125 16q94 0 147 -59q94 -105 282.5 -415t293.5 -527q-17 233 -17 495
q0 305 -14 498q47 6 84 6q135 0 135 -78q0 -12 -4 -82.5t-9 -176t-5 -200.5v-350q0 -289 14 -475z" />
    <glyph glyph-name="O" unicode="O" horiz-adv-x="1466" 
d="M731 -20q-295 0 -470 190t-175 508q0 321 175 510.5t470 189.5q299 0 475 -189.5t176 -510.5q0 -318 -177 -508t-474 -190zM1149 643q0 148 -38 271.5t-135 213t-241 89.5q-190 0 -303 -134.5t-113 -345.5q0 -153 38 -282t135.5 -221.5t240.5 -92.5q199 0 307.5 139.5
t108.5 362.5z" />
    <glyph glyph-name="P" unicode="P" horiz-adv-x="1044" 
d="M528 639q117 0 182.5 74.5t65.5 201.5q0 175 -73.5 240.5t-229.5 65.5q-43 0 -125 -9q8 -110 8 -381v-157q68 -35 172 -35zM141 473v410q0 282 -26 471q157 24 319 24q576 0 576 -452q0 -219 -124 -334t-292 -115q-137 0 -238 66v-142q0 -266 39 -391q-49 -16 -125 -16
q-80 0 -106.5 26.5t-26.5 90.5q0 32 2 161t2 201z" />
    <glyph glyph-name="Q" unicode="Q" horiz-adv-x="1458" 
d="M1145 643q0 148 -38 271.5t-135.5 213t-240.5 89.5q-190 0 -303 -134.5t-113 -345.5q0 -153 38 -282t135.5 -221.5t240.5 -92.5q199 0 307.5 139.5t108.5 362.5zM637 -18q-256 28 -403.5 212.5t-147.5 483.5q0 323 172 511.5t471 188.5t472 -188.5t173 -511.5
q0 -299 -152.5 -485.5t-412.5 -208.5q22 -82 84.5 -131.5t140.5 -49.5q62 0 122.5 35t98.5 80q76 -61 76 -145q0 -74 -75.5 -112t-200.5 -38q-68 0 -130.5 18.5t-122 57.5t-103.5 111.5t-62 171.5z" />
    <glyph glyph-name="R" unicode="R" horiz-adv-x="1104" 
d="M922 195q47 -58 108 -58q23 0 47 6q19 -43 19 -71q0 -47 -50.5 -69.5t-121.5 -22.5q-119 0 -211 116q-64 80 -133.5 220.5t-108.5 244.5q-47 19 -47 66q0 39 16 80q33 -9 76 -9q111 0 185.5 66.5t74.5 198.5q0 145 -71.5 201.5t-223.5 56.5q-55 0 -133 -9q8 -114 8 -407
v-399q0 -271 39 -396q-45 -16 -127 -16q-75 0 -103 26.5t-28 90.5q0 32 2 161t2 201v410q0 282 -26 471q157 24 321 24q576 0 576 -415q0 -158 -85 -261.5t-225 -140.5q134 -285 220 -366z" />
    <glyph glyph-name="S" unicode="S" horiz-adv-x="1083" 
d="M836 1040q-31 78 -115 129.5t-174 51.5q-105 0 -175.5 -51.5t-70.5 -151.5q0 -62 39 -104t101.5 -65.5t137 -44t149.5 -47t137.5 -63.5t101.5 -106.5t39 -165.5q0 -121 -41 -210t-114 -138t-157 -71.5t-182 -22.5q-170 0 -302 61t-132 145t119 140q41 -78 141 -131.5
t203 -53.5q118 0 197 54.5t79 164.5q0 66 -52 111t-130 67.5t-170 56.5t-170 74t-130 124t-52 202q0 183 137 283t340 100q86 0 172 -21.5t149.5 -69.5t63.5 -111q0 -107 -139 -136z" />
    <glyph glyph-name="T" unicode="T" horiz-adv-x="993" 
d="M393 473v410q0 114 -4 307q-291 0 -383 -8q-6 24 -6 73q0 56 21.5 75.5t68.5 21.5q51 2 240 2h241q344 0 416 6q6 -25 6 -72q0 -55 -21.5 -74.5t-68.5 -21.5q-57 -2 -285 -2q-10 -221 -10 -363v-411q0 -273 39 -402q-57 -20 -127 -20q-76 0 -103.5 26.5t-27.5 90.5
q0 32 2 161t2 201z" />
    <glyph glyph-name="U" unicode="U" horiz-adv-x="1317" 
d="M125 1348q53 16 121 16q78 0 113.5 -23.5t35.5 -80.5q0 -84 -15 -376t-15 -454q0 -139 71.5 -205.5t167.5 -66.5q88 0 185.5 45t156.5 108v65q0 50 1 178t1 329q0 286 -14 473q63 8 113 8q133 0 133 -78q0 -4 -4.5 -75.5t-8.5 -224t-4 -353.5q0 -318 6.5 -425.5
t32.5 -197.5q-45 -16 -127 -16q-74 0 -102.5 25.5t-28.5 95.5v39q-80 -78 -191.5 -126t-205.5 -48q-187 0 -296.5 91t-109.5 322q0 121 9.5 328t9.5 305q0 195 -35 322z" />
    <glyph glyph-name="V" unicode="V" horiz-adv-x="1184" 
d="M936 1364q55 14 113 14q65 0 91.5 -22.5t26.5 -77.5q0 -225 -143 -603t-293 -569q-53 -67 -95 -89.5t-101 -22.5q-54 0 -80 6q-66 330 -222.5 754t-267.5 532q109 80 183 80q73 0 112 -76q82 -168 185.5 -477t168.5 -567q136 196 233 497t97 521q0 71 -8 100z" />
    <glyph glyph-name="W" unicode="W" horiz-adv-x="1942" 
d="M1675 1364q56 14 113 14q65 0 92 -22.5t27 -77.5q0 -225 -135.5 -603t-276.5 -569q-49 -67 -90 -89.5t-96 -22.5q-49 0 -74 6q-70 362 -229 801q-64 -203 -150 -394.5t-168 -300.5q-49 -67 -90 -89.5t-96 -22.5q-49 0 -74 6q-61 330 -209.5 754t-253.5 532q109 80 182 80
q80 0 113 -76q76 -176 168 -481t152 -563q122 196 209.5 497t87.5 521q0 71 -9 100q56 14 113 14q66 0 92.5 -22.5t26.5 -77.5q0 -18 -4 -59q159 -408 290 -973q123 196 210 497t87 521q0 71 -8 100z" />
    <glyph glyph-name="X" unicode="X" horiz-adv-x="1239" 
d="M43 90q0 139 469 612q-25 35 -106.5 153t-123.5 175t-105.5 133t-108.5 115q71 65 107 82.5t75 17.5q69 0 129 -73q41 -52 126 -189t144 -250q84 113 161 255.5t103 254.5q217 -12 217 -112q0 -80 -122.5 -242t-272.5 -305q115 -170 182.5 -268.5t160.5 -215t149 -155.5
q-88 -98 -176 -98q-86 0 -142 79q-174 234 -311 494q-279 -356 -340 -573q-215 8 -215 110z" />
    <glyph glyph-name="Y" unicode="Y" horiz-adv-x="1038" 
d="M1030 1262q0 -72 -132 -273t-263 -360v-213q0 -273 39 -402q-58 -20 -127 -20q-76 0 -103.5 26.5t-27.5 90.5q0 32 2 161t2 201v148q-289 536 -438 636q32 43 83.5 76t98.5 33q72 0 121 -70q151 -223 282 -505q95 145 176.5 329.5t92.5 255.5q194 -8 194 -114z" />
    <glyph glyph-name="Z" unicode="Z" horiz-adv-x="1155" 
d="M1087 1327q33 -37 33 -82q0 -49 -35 -94l-809 -1012q31 -2 117 -2q400 0 660 80q24 -74 24 -115q0 -39 -21.5 -60.5t-49 -28.5t-80.5 -13q-129 -12 -342 -12q-305 0 -502 24q-37 49 -37 103q0 65 51 129l752 960q-80 6 -197 6q-297 0 -526 -55q-21 57 -21 102q0 68 60 89
q88 20 266 20q371 0 657 -39z" />
    <glyph glyph-name="bracketleft" unicode="[" horiz-adv-x="778" 
d="M461 1327v-1569q59 2 125 2q67 0 95 -21.5t28 -64.5q0 -22 -15 -63h-434v1864h432q17 -33 17 -64q0 -49 -30 -67.5t-93 -18.5q-80 0 -125 2z" />
    <glyph glyph-name="backslash" unicode="\" horiz-adv-x="539" 
d="M317 -236q-10 144 -63 474q-84 540 -160 1013q-33 203 -33 211q0 58 84 58q33 0 64 -11q24 -237 63 -473q45 -288 84 -529t57.5 -357.5t32 -199.5t17.5 -106.5t4 -27.5q0 -58 -82 -58q-33 0 -68 6z" />
    <glyph glyph-name="bracketright" unicode="]" horiz-adv-x="725" 
d="M299 -242v1569q-45 -2 -125 -2q-63 0 -93 18.5t-30 67.5q0 31 17 64h432v-1864h-434q-15 41 -15 63q0 43 27.5 64.5t95.5 21.5q66 0 125 -2z" />
    <glyph glyph-name="asciicircum" unicode="^" horiz-adv-x="999" 
d="M868 836q-77 0 -368 307q-105 -111 -214.5 -209t-152.5 -98t-90 47q47 80 201.5 251t255.5 269q96 -94 251.5 -267t204.5 -253q-51 -47 -88 -47z" />
    <glyph glyph-name="underscore" unicode="_" 
d="M1096 -225q0 -37 -20.5 -61.5t-53.5 -24.5q-31 0 -141.5 8t-167.5 8h-293q-234 0 -414 -16q-6 30 -6 61q0 33 18.5 59.5t55.5 26.5q6 0 129 -7t213 -7h291q260 0 383 14q6 -18 6 -61z" />
    <glyph glyph-name="grave" unicode="`" horiz-adv-x="467" 
d="M18 1479q82 -88 172.5 -156t130 -98.5t39.5 -63.5q0 -47 -65 -90q-64 47 -169.5 103.5t-159.5 96.5t-54 83q0 71 106 125z" />
    <glyph glyph-name="a" unicode="a" horiz-adv-x="979" 
d="M621 293q0 94 4 145q-62 -8 -89.5 -12t-74.5 -12t-68.5 -18.5t-46 -25t-35 -36t-10.5 -49.5q0 -82 41 -121t104 -39q105 0 179 78q-4 26 -4 90zM629 563q0 70 -3 107t-16.5 84t-45.5 68.5t-85 21.5q-67 0 -127.5 -44t-87.5 -122q-182 2 -182 108q0 88 124 147.5t281 59.5
q189 0 276 -77.5t87 -278.5q0 -6 -2 -96t-2 -176q0 -234 39 -351q-60 -22 -117 -22q-115 0 -137 94q-123 -106 -277 -106q-118 0 -197 73.5t-79 216.5q0 115 49 170.5t131 81.5q123 39 371 41z" />
    <glyph glyph-name="b" unicode="b" horiz-adv-x="1069" 
d="M778 508q0 170 -60.5 253t-150.5 83q-118 0 -221 -103q2 -123 2 -272q0 -139 -6 -240q98 -98 217 -98q111 0 165 110.5t54 266.5zM641 993q160 0 260 -119.5t100 -359.5q0 -225 -118.5 -379.5t-341.5 -154.5q-244 0 -418 143q14 121 14 436q0 182 -10 529.5t-23 424.5
q39 9 109 9q143 0 143 -111q0 -25 -6 -178.5t-6 -345.5q131 106 297 106z" />
    <glyph glyph-name="c" unicode="c" horiz-adv-x="950" 
d="M580 127q55 0 114.5 28.5t87.5 82.5q101 -54 101 -115q0 -70 -96.5 -106.5t-215.5 -36.5q-88 0 -173 29.5t-158.5 87t-117.5 155.5t-44 225q0 254 147.5 385t335.5 131q115 0 218.5 -54t103.5 -151q0 -43 -43 -69.5t-117 -34.5q-16 74 -73.5 115t-117.5 41
q-98 0 -163.5 -94.5t-65.5 -245.5q0 -195 77 -284t200 -89z" />
    <glyph glyph-name="d" unicode="d" horiz-adv-x="1083" 
d="M545 131q96 0 186 90q-4 377 -4 580q-86 43 -172 43q-117 0 -185.5 -90t-68.5 -236q0 -172 70.5 -279.5t173.5 -107.5zM78 487q0 228 126 367t306 139q119 0 221 -57q0 367 -24 577q57 9 110 9q68 0 104.5 -29t36.5 -82q0 -51 -9 -373.5t-9 -578.5q0 -340 39 -445
q-51 -20 -113 -20q-114 0 -127 86q-118 -100 -252 -100q-165 0 -287 143t-122 364z" />
    <glyph glyph-name="e" unicode="e" horiz-adv-x="993" 
d="M457 403q-56 0 -150 5q21 -146 93.5 -213.5t179.5 -67.5q55 0 114.5 28.5t87.5 82.5q101 -54 101 -115q0 -70 -96.5 -106.5t-215.5 -36.5q-192 0 -342.5 126.5t-150.5 366.5q0 252 144.5 386t340.5 134q158 0 255 -86t97 -205q0 -96 -35.5 -158.5t-105 -91t-141.5 -39
t-176 -10.5zM545 844q-96 0 -164 -74t-80 -233q131 0 193 6q198 24 198 155q0 60 -42 103t-105 43z" />
    <glyph glyph-name="f" unicode="f" horiz-adv-x="692" 
d="M385 1040v-69q172 0 262 10q10 -23 10 -66q0 -51 -24.5 -70.5t-77.5 -21.5q-59 -2 -170 -2v-405q0 -271 39 -402q-45 -20 -105 -20q-86 0 -117.5 25.5t-31.5 84.5q0 111 2 341.5t2 373.5q-29 0 -158 -12q-8 33 -8 76t22.5 59t63.5 25q37 4 80 4q4 256 88 375.5t297 119.5
q82 0 137.5 -27.5t55.5 -76.5q0 -55 -76 -117q-74 68 -154 68q-57 0 -94 -45q-43 -60 -43 -228z" />
    <glyph glyph-name="g" unicode="g" horiz-adv-x="1110" 
d="M520 240q-53 0 -108 10q-70 -74 -70 -125q0 -41 123 -41h233q314 0 314 -234q0 -161 -158 -261.5t-381 -100.5q-205 0 -308.5 70.5t-103.5 173.5q0 116 148 217q-74 43 -74 100q0 39 39 106.5t105 125.5q-97 41 -148 129t-51 206q0 162 118.5 270.5t301.5 108.5
q159 0 266 -73q86 108 190 108q119 0 119 -106q0 -31 -12 -70q-45 10 -76 10q-63 0 -131 -28q62 -101 62 -220q0 -172 -117 -274t-281 -102zM694 600q0 105 -53 175.5t-143 70.5q-197 0 -197 -213q0 -105 52.5 -173.5t144.5 -68.5q106 0 151 51.5t45 157.5zM686 -86h-201
q-106 0 -155 8q-66 -90 -66 -153q0 -107 223 -107q166 0 252 47t86 115q0 51 -34.5 70.5t-104.5 19.5z" />
    <glyph glyph-name="h" unicode="h" horiz-adv-x="1083" 
d="M719 623q0 112 -45 167.5t-117 55.5q-113 0 -225 -109q2 -75 3 -330t13 -403q-55 -8 -102 -8q-133 0 -133 82q0 12 3 98t5 263t2 409q0 483 -19 663q58 11 107 11q145 0 145 -113q0 -8 -5 -71.5t-11 -185.5t-6 -267q141 108 317 108q125 0 203 -73.5t78 -237.5
q0 -12 -1 -61.5t-3 -130t-2 -168.5q0 -168 53 -304q-64 -26 -115 -26q-84 0 -118.5 34.5t-34.5 131.5q0 78 4 265t4 200z" />
    <glyph glyph-name="i" unicode="i" horiz-adv-x="510" 
d="M238 979q147 0 147 -109q0 -12 -6 -82.5t-11.5 -175t-5.5 -198.5q0 -275 54 -400q-51 -22 -117 -22q-90 0 -122 37t-32 125q0 32 2.5 158t2.5 194q0 297 -19 465q49 8 107 8zM248 1065q-62 0 -105 41t-43 104q0 62 45 104t107 42q59 0 102 -42t43 -103q0 -62 -45 -104
t-104 -42z" />
    <glyph glyph-name="j" unicode="j" horiz-adv-x="522" 
d="M268 1065q-61 0 -104 41t-43 104q0 62 45 104t106 42q60 0 103 -42t43 -103q0 -62 -45 -104t-105 -42zM258 981q145 0 145 -109q0 -51 -11 -199.5t-11 -281.5q0 -22 4 -222t4 -312q0 -185 -101.5 -279t-289.5 -94q-102 0 -178 32.5t-76 84.5q0 61 86 127q80 -93 190 -93
q156 0 156 234q0 74 -3 274.5t-3 331.5q0 348 -18 496q53 10 106 10z" />
    <glyph glyph-name="k" unicode="k" horiz-adv-x="1010" 
d="M547 844q-94 0 -215 -92q2 -78 3 -338t13 -410q-55 -8 -102 -8q-133 0 -133 82q0 14 3 100t5 262t2 408q0 483 -19 663q58 11 107 11q145 0 145 -113q0 -18 -5 -87t-11 -182.5t-6 -240.5q135 94 274 94q144 0 218.5 -76.5t74.5 -189.5q0 -117 -76.5 -211t-212.5 -117
q76 -131 148 -202q59 -58 100 -58t80 13q23 -52 23 -78q0 -47 -50.5 -70.5t-124.5 -23.5q-83 0 -159 86q-109 124 -211 356q-35 14 -35 55q0 27 14 66q43 -13 92 -13q91 0 143 53.5t52 123.5q0 57 -36 97t-101 40z" />
    <glyph glyph-name="l" unicode="l" horiz-adv-x="494" 
d="M211 1522q145 0 145 -113q0 -12 -6 -95t-11 -238.5t-5 -346.5q0 -393 8 -505.5t47 -205.5q-59 -26 -121 -26q-88 0 -118.5 38t-30.5 128q4 385 4 565q0 620 -19 788q58 11 107 11z" />
    <glyph glyph-name="m" unicode="m" horiz-adv-x="1696" 
d="M104 956l9 7q55 16 98 16q59 0 92 -18.5t41 -81.5q145 114 328 114q178 0 246 -131q143 131 344 131q124 0 203 -73.5t79 -237.5q0 -6 -3 -150.5t-3 -209.5q0 -168 53 -304q-63 -26 -116 -26q-84 0 -119 34.5t-35 131.5q0 71 4 243t4 222q0 112 -44 167.5t-116 55.5
q-110 0 -227 -107q4 -274 4 -417q0 -185 12 -318q-55 -8 -100 -8q-135 0 -135 82q0 35 8 204t8 341q0 112 -45 167.5t-116 55.5q-113 0 -226 -107q4 -274 4 -399q0 -197 13 -336q-56 -8 -103 -8q-133 0 -133 82q0 47 5 183t5 247q0 342 -39 448z" />
    <glyph glyph-name="n" unicode="n" horiz-adv-x="1090" 
d="M344 879q145 114 328 114q125 0 202.5 -73.5t77.5 -237.5q0 -23 -3 -160t-3 -200q0 -168 53 -304q-63 -26 -114 -26q-84 0 -119 34.5t-35 131.5q0 106 4 256.5t4 208.5q0 112 -45 167.5t-116 55.5q-109 0 -226 -107q4 -274 4 -399q0 -197 13 -336q-56 -8 -103 -8
q-133 0 -133 82q0 59 5 192t5 240q0 340 -39 446q50 23 107 23q59 0 92 -18.5t41 -81.5z" />
    <glyph glyph-name="o" unicode="o" horiz-adv-x="1106" 
d="M805 461q0 164 -68.5 273.5t-185.5 109.5q-119 0 -184.5 -90t-65.5 -240q0 -166 66.5 -274.5t183.5 -108.5q121 0 187.5 90t66.5 240zM551 -20q-213 0 -343 138t-130 370q0 231 130 368t343 137q215 0 346 -137t131 -368q0 -232 -131 -370t-346 -138z" />
    <glyph glyph-name="p" unicode="p" horiz-adv-x="1085" 
d="M575 844q-114 0 -223 -90q4 -504 4 -568q80 -55 201 -55q78 0 131 59.5t74.5 142.5t21.5 181q0 170 -58 250t-151 80zM346 872q150 121 305 121q158 0 257.5 -110.5t99.5 -339.5q0 -236 -115 -399.5t-330 -163.5q-108 0 -211 57q0 -414 41 -533q-61 -20 -117 -20
q-81 0 -110 27.5t-29 93.5q0 153 3 477t3 430q0 334 -39 444q52 23 115 23q119 0 127 -107z" />
    <glyph glyph-name="q" unicode="q" horiz-adv-x="1100" 
d="M541 844q-101 0 -170.5 -90t-69.5 -230q0 -180 69.5 -286.5t174.5 -106.5q114 0 198 92q2 199 17 529q-90 92 -219 92zM496 -20q-172 0 -295 144t-123 361q0 236 135 372t338 136q246 0 430 -141q-27 -274 -27 -805q0 -444 41 -545q-55 -18 -114 -18q-84 0 -113 28.5
t-29 79.5q0 302 4 471q-106 -83 -247 -83z" />
    <glyph glyph-name="r" unicode="r" horiz-adv-x="733" 
d="M211 979q74 0 105.5 -26.5t31.5 -84.5v-24q119 149 232 149q118 0 118 -86q0 -57 -73 -149q-43 37 -97 37q-104 0 -188 -113q-6 -131 -6 -266q0 -269 55 -398q-55 -26 -121 -26q-88 0 -118.5 39t-30.5 125q0 24 2 139t2 180q0 342 -19 494q60 10 107 10z" />
    <glyph glyph-name="s" unicode="s" horiz-adv-x="895" 
d="M653 698q-41 133 -227 133q-53 0 -92 -29.5t-39 -80.5q0 -62 54 -96.5t132 -51t156 -39t132 -84t54 -163.5q0 -150 -117.5 -228.5t-277.5 -78.5q-141 0 -249.5 47t-108.5 116q0 88 127 142q61 -144 266 -144q155 0 155 105q0 61 -54 93t-132 47t-155.5 40t-132 90.5
t-54.5 175.5q0 148 118 224.5t277 76.5q62 0 128.5 -13t129 -55t62.5 -106q0 -41 -41 -72.5t-111 -48.5z" />
    <glyph glyph-name="t" unicode="t" horiz-adv-x="762" 
d="M100 971q19 2 93 2q-5 121 -13 207q43 8 101 8q141 0 141 -76q0 -49 -6 -141q221 0 307 12q12 -22 12 -63q0 -56 -24.5 -75.5t-77.5 -21.5q-62 -2 -221 -2q-4 -192 -4 -415q0 -66 4 -109t18 -86t43 -64.5t74 -21.5q63 0 131 72q53 -60 53 -101q0 -59 -60.5 -87.5
t-135.5 -28.5q-342 0 -342 372q0 97 1 268t1 203q-132 -8 -187 -16q-8 22 -8 67q0 54 23.5 72.5t76.5 24.5z" />
    <glyph glyph-name="u" unicode="u" horiz-adv-x="1083" 
d="M745 96q-135 -116 -311 -116q-301 0 -301 290q0 15 3 157t3 206q0 211 -35 330q56 18 113 18q76 0 108.5 -24.5t32.5 -82.5q0 -106 -6 -290.5t-6 -237.5q0 -104 44 -159.5t114 -55.5q119 0 227 105q-2 83 -2 260q0 307 -14 477q57 8 102 8q131 0 131 -80q0 -37 -4 -205
t-4 -278q0 -256 39 -402q-43 -22 -102 -22q-39 0 -61.5 5t-43 28.5t-27.5 68.5z" />
    <glyph glyph-name="v" unicode="v" horiz-adv-x="946" 
d="M772 993q115 0 115 -82q0 -139 -103.5 -421.5t-208.5 -413.5q-65 -82 -151 -82q-62 0 -96 8q-47 240 -153.5 540t-180.5 373q90 70 162 70q69 0 104 -71.5t110.5 -289.5t125.5 -391q63 103 123.5 316t60.5 364q0 37 -6 68q45 12 98 12z" />
    <glyph glyph-name="w" unicode="w" horiz-adv-x="1503" 
d="M1329 993q115 0 115 -82q0 -139 -102.5 -421.5t-206.5 -413.5q-68 -82 -154 -82q-61 0 -94 8q-43 217 -117 447q-98 -252 -195 -373q-65 -82 -151 -82q-62 0 -96 8q-47 240 -153.5 540t-180.5 373q90 70 162 70q69 0 104 -72q37 -71 111.5 -288t124.5 -389
q61 108 122.5 316t61.5 361q0 37 -6 68q45 12 98 12q115 0 115 -82q0 -55 -19 -131q125 -331 185 -544q67 114 126.5 316t59.5 361q0 37 -6 68q41 12 96 12z" />
    <glyph glyph-name="x" unicode="x" horiz-adv-x="934" 
d="M633 41q-70 86 -205 311q-174 -258 -195 -372q-190 0 -190 81q0 60 106.5 197t212.5 240q-229 338 -319 397q94 98 156 98q73 0 116 -57q50 -64 170 -268q129 225 144 327q194 -4 194 -82q0 -49 -85 -170.5t-183 -222.5q104 -162 203.5 -292t148.5 -165q-82 -83 -166 -83
q-59 0 -108 61z" />
    <glyph glyph-name="y" unicode="y" horiz-adv-x="954" 
d="M211 -512q-41 0 -79 30.5t-62 78.5q57 38 149 144.5t176 246.5q-76 252 -195.5 549t-199.5 376q100 70 162 70q78 0 110 -70q45 -94 125 -291.5t133 -371.5q70 172 115 362.5t45 307.5q0 36 -4 61q47 12 105 12q110 0 110 -86q0 -94 -73.5 -325.5t-174.5 -448.5
q-184 -399 -338 -590q-45 -55 -104 -55z" />
    <glyph glyph-name="z" unicode="z" horiz-adv-x="1001" 
d="M897 827q0 -57 -39 -96q-209 -219 -569 -588q336 0 540 68q21 -53 21 -105q0 -36 -19.5 -59.5t-43 -31t-62.5 -13.5q-86 -14 -270 -14q-226 0 -379 26q-33 49 -33 107q0 55 49 106q66 68 268.5 275t309.5 319q-58 4 -176 4q-222 0 -371 -53q-21 57 -21 115q4 61 66 82
q51 16 207 16q110 0 258.5 -16.5t228.5 -36.5q35 -41 35 -105z" />
    <glyph glyph-name="braceleft" unicode="{" horiz-adv-x="887" 
d="M549 1202v-401q0 -58 -40 -121.5t-91 -93.5q53 -33 93 -93.5t40 -117.5v-404q0 -67 18.5 -89.5t100.5 -22.5q67 0 98 -18.5t31 -67.5q0 -27 -17 -60q-49 -4 -96 -4q-194 0 -266 57.5t-72 182.5v422q0 53 -57.5 101t-169.5 48v133q112 0 170.5 49.5t58.5 102.5v420
q0 125 71 182t265 57q47 0 96 -4q17 -33 17 -61q0 -49 -31 -67.5t-98 -18.5q-82 0 -101.5 -22.5t-19.5 -88.5z" />
    <glyph glyph-name="bar" unicode="|" 
d="M469 -18v1173q0 240 -16 348q32 6 94 6q94 0 94 -77q0 -11 -7 -148t-7 -203v-1192q0 -245 16 -393q-33 -6 -94 -6q-94 0 -94 78q0 10 7 178t7 236z" />
    <glyph glyph-name="braceright" unicode="}" horiz-adv-x="848" 
d="M301 801v401q0 66 -19.5 88.5t-101.5 22.5q-67 0 -98 18.5t-31 67.5q0 28 17 61q49 4 96 4q194 0 265 -57t71 -182v-420q0 -53 58 -102.5t171 -49.5v-133q-113 0 -170 -48t-57 -101v-422q0 -125 -72 -182.5t-266 -57.5q-47 0 -96 4q-17 33 -17 60q0 49 31 67.5t98 18.5
q82 0 100.5 22.5t18.5 89.5v404q0 57 40 117.5t93 93.5q-51 30 -91 93.5t-40 121.5z" />
    <glyph glyph-name="asciitilde" unicode="~" horiz-adv-x="1141" 
d="M70 551q0 139 252 139q116 0 265.5 -40t227.5 -40q94 0 191 95q65 -82 65 -138q0 -73 -73.5 -107t-182.5 -34q-74 0 -226.5 40t-234.5 40q-123 0 -217 -94q-67 88 -67 139z" />
    <glyph glyph-name="uni0640" unicode="&#x640;" horiz-adv-x="330" 
d="M-20 158h370v-158h-370v158z" />
    <glyph glyph-name="uni064B" unicode="&#x64b;" horiz-adv-x="3138" 
d="M229 258v-9q0 -21 -8 -46q-37 11 -86 11q-25 0 -53 -3l-223 -16q-11 -1 -21 -1q-29 0 -43 11q-16 14 -20 53v8q0 20 8 45q37 -11 86 -11q25 0 53 3l223 16q11 1 21 1q29 0 43 -11q16 -14 20 -51zM229 63v-8q0 -19 -8 -45q-36 11 -84 11q-26 0 -55 -3l-223 -18
q-10 -1 -19 -1q-30 0 -45 11q-16 15 -20 53v9q0 21 8 45q38 -10 88 -10q24 0 51 2l223 18q10 1 19 1q30 0 45 -11q16 -15 20 -54z" />
    <glyph glyph-name="uni064C" unicode="&#x64c;" horiz-adv-x="0" 
d="M80 104q72 7 72 62v6q-5 51 -72 51h-10q-70 -6 -70 -59v-6l4 -58zM223 166v-12q0 -58 -37 -97q-39 -41 -104 -45l-154 -12h-14q-114 0 -125 123q-5 64 -53 64q-24 0 -58 -15l-14 49q66 25 110 25q79 0 87 -80l2 -19q2 -57 41 -57q8 0 18 2l-4 51q-1 8 -1 16q0 55 38 93
q39 41 104 45q10 1 19 1q54 0 92 -30q47 -35 53 -102z" />
    <glyph glyph-name="uni064D" unicode="&#x64d;" horiz-adv-x="0" 
d="M229 -63v-9q0 -21 -8 -47q-36 11 -84 11q-26 0 -55 -3l-223 -16q-10 -1 -19 -1q-30 0 -45 11q-16 15 -20 54v8q0 19 8 45q36 -11 84 -11q26 0 55 3l223 16q10 1 19 1q30 0 45 -11q16 -15 20 -51zM229 -258v-8q0 -20 -8 -45q-37 11 -86 11q-25 0 -53 -3l-223 -19
q-9 -1 -18 -1q-31 0 -46 12q-16 14 -20 53v8q0 22 8 45q39 -10 91 -10q23 0 48 2l223 18q11 1 21 1q29 0 43 -11q16 -14 20 -53z" />
    <glyph glyph-name="uni064E" unicode="&#x64e;" horiz-adv-x="0" 
d="M240 63v-7q0 -20 -9 -46q-36 11 -84 11q-26 0 -55 -3l-223 -16q-13 -2 -25 -2q-25 0 -37 10q-18 15 -22 53v9q0 21 8 47q39 -12 93 -12q23 0 48 2l224 18q10 1 18 1q29 0 43 -11q17 -15 21 -54z" />
    <glyph glyph-name="uni064F" unicode="&#x64f;" horiz-adv-x="0" 
d="M82 113q74 6 74 59v6q-4 52 -66 52q-8 0 -16 -1q-70 -6 -70 -57v-6l4 -60zM225 174q1 -8 1 -16q0 -54 -36 -92q-38 -41 -104 -46l-154 -12l-104 -8h-9q-22 0 -32 8q-12 8 -16 43v7q0 19 8 44q26 -8 82 -8l65 6l-4 52q-1 8 -1 16q0 54 36 92q41 41 106 45q10 1 19 1
q54 0 92 -30q47 -36 51 -102z" />
    <glyph glyph-name="uni0650" unicode="&#x650;" horiz-adv-x="0" 
d="M229 -63v-9q0 -21 -8 -47q-36 11 -84 11q-26 0 -55 -3l-223 -16q-10 -1 -19 -1q-30 0 -45 11q-16 15 -20 54v8q0 19 8 45q36 -11 84 -11q26 0 55 3l223 16q10 1 19 1q30 0 45 -11q16 -15 20 -51z" />
    <glyph glyph-name="uni0651" unicode="&#x651;" horiz-adv-x="0" 
d="M233 240l-4 -11q-12 -28 -12 -75v-19q0 -57 -33 -94q-34 -41 -94 -41h-4q-51 0 -86 33q-33 -33 -86 -33h-2q-55 0 -92 37q-35 39 -35 98v62q0 30 12 43q13 14 41 14q15 0 35 -8l10 -6l-4 -11q-12 -28 -12 -75v-19q0 -72 45 -72h2q45 0 45 72v45q0 31 12 43q13 15 41 15
q15 0 35 -9l10 -6l-4 -10q-12 -29 -12 -74v-4q0 -72 45 -72h4q45 0 45 72v62q0 30 12 43q13 14 41 14q15 0 35 -8z" />
    <glyph glyph-name="uni0652" unicode="&#x652;" horiz-adv-x="0" 
d="M2 74q55 0 55 69q0 72 -55 72q-57 0 -57 -72q0 -69 57 -69zM2 301q66 0 104 -45q35 -41 35 -104q0 -66 -35 -107q-38 -45 -106 -45q-63 0 -102 45q-37 41 -37 107q0 63 37 104q39 45 104 45z" />
    <glyph glyph-name="uni0660" unicode="&#x660;" 
d="M557 -20q-231 0 -368.5 189t-137.5 509q0 321 137.5 510.5t368.5 189.5t369.5 -189.5t138.5 -510.5q0 -318 -138.5 -508t-369.5 -190zM844 645q0 141 -30 269t-97.5 220.5t-157.5 92.5q-125 0 -206 -142.5t-81 -347.5q0 -151 30 -285.5t96.5 -227.5t158.5 -93
q129 0 208 147.5t79 366.5z" />
    <glyph glyph-name="uni0661" unicode="&#x661;" 
d="M705 139q145 0 204 8q9 -28 9 -55q0 -96 -80 -96q-15 0 -136.5 2t-212.5 2q-176 0 -239 -2q-10 37 -10 61q0 86 118 86h131q0 37 2.5 217.5t2.5 329.5q0 289 -7 516q-217 -24 -247 -30q-7 30 -7 55q0 96 80 110q222 35 303 35q35 0 63 -22.5t28 -73.5q0 -4 -8.5 -247.5
t-8.5 -430.5q0 -340 15 -465z" />
    <glyph glyph-name="uni0662" unicode="&#x662;" 
d="M213 1049q-47 6 -73.5 33.5t-26.5 66.5q0 80 135 154.5t291 74.5q168 0 289.5 -98t121.5 -276q0 -113 -39 -214.5t-131 -209t-187 -195.5t-265 -227q39 -2 159 -2q209 0 306.5 10t193.5 47q29 -61 29 -104q0 -64 -51 -84q-80 -29 -340 -29q-318 0 -447 4q-98 0 -98 96
q0 21 2 29q385 344 520 515t135 325q0 118 -68.5 188t-166.5 70q-80 0 -159 -48.5t-130 -125.5z" />
    <glyph glyph-name="uni0663" unicode="&#x663;" 
d="M670 745q161 -61 218.5 -147t57.5 -209q0 -166 -135 -287.5t-373 -121.5q-145 0 -235 35.5t-90 97.5q0 41 26.5 67.5t69.5 32.5q63 -82 223 -82q139 0 216 79t77 181q0 109 -93 186.5t-259 77.5q-23 0 -34 2t-22.5 10.5t-15.5 27t-4 48.5q0 21 2 35q190 0 286.5 74
t96.5 174q0 80 -53.5 139.5t-141.5 59.5q-67 0 -133.5 -41t-105.5 -119q-47 0 -77 29.5t-30 70.5q0 70 119 141.5t266 71.5q179 0 278 -93t99 -222q0 -98 -57.5 -184t-175.5 -134z" />
    <glyph glyph-name="uni0664" unicode="&#x664;" 
d="M674 1118q-197 -239 -389 -543q90 -6 186 -6q102 0 199 6q0 220 4 543zM664 1354q38 24 143 24q29 0 78 -4q0 -6 -4 -88t-9.5 -226.5t-5.5 -299.5v-178q152 12 201 34q16 -45 16 -94q0 -71 -41 -88q-49 -20 -178 -22q0 -291 43 -416q-45 -16 -110 -16q-76 0 -103.5 26.5
t-27.5 89.5q0 80 4 314q-432 0 -547 14q-47 6 -47 94q0 31 4 64q88 151 290.5 421.5t293.5 350.5z" />
    <glyph glyph-name="uni0665" unicode="&#x665;" 
d="M766 1176q-160 0 -375 12l-29 -307q76 12 144 12q221 0 335.5 -118t114.5 -308q0 -209 -136 -348t-374 -139q-157 0 -243 37.5t-86 95.5q0 82 96 100q63 -82 215 -82q145 0 226 92t81 215q0 127 -94 218.5t-258 91.5q-84 0 -162 -11q-20 21 -20 99q0 30 26 524
q64 -4 432 -4q154 0 242 16q21 -37 21 -86q0 -110 -156 -110z" />
    <glyph glyph-name="uni0666" unicode="&#x666;" 
d="M565 668q-121 0 -233 -121q2 -86 13 -152.5t36 -130t74 -97.5t118 -34q101 0 157 78t56 186q0 123 -62 197t-159 74zM557 -20q-125 0 -216 49t-139 135t-69.5 184t-21.5 215q0 207 76.5 389.5t238.5 304t375 121.5q90 0 90 -90q0 -18 -10 -74q-41 9 -88 9
q-199 0 -322 -159t-137 -384q125 141 307 141q152 0 259.5 -107.5t107.5 -283.5t-123 -313t-328 -137z" />
    <glyph glyph-name="uni0667" unicode="&#x667;" 
d="M121 66q166 174 361.5 520t293.5 598q-295 -8 -528 -8q-156 0 -156 110q0 35 21 86q102 -16 235 -16q531 0 639 4q17 -33 17 -76q0 -41 -13 -78q-37 -108 -219 -465.5t-328 -619.5q-77 -141 -165 -141q-82 0 -158 86z" />
    <glyph glyph-name="uni0668" unicode="&#x668;" 
d="M745 1075q0 66 -57 109t-137 43t-136.5 -43t-56.5 -109q0 -88 55.5 -148.5t164.5 -111.5q167 80 167 260zM551 131q108 0 172.5 68.5t64.5 160.5q0 109 -65.5 174.5t-218.5 135.5q-105 -64 -149 -130.5t-44 -179.5q0 -92 65.5 -160.5t174.5 -68.5zM553 -23
q-219 0 -338 114t-119 271q0 240 275 373q-221 139 -221 340q0 135 117.5 220t283.5 85t284.5 -85t118.5 -220q0 -203 -225 -307q281 -145 281 -406q0 -157 -119 -271t-338 -114z" />
    <glyph glyph-name="uni0669" unicode="&#x669;" 
d="M537 690q120 0 233 121q-2 86 -13.5 152.5t-36 130t-73.5 97.5t-119 34q-100 0 -156.5 -78t-56.5 -186q0 -123 62.5 -197t159.5 -74zM545 1378q125 0 216 -49t139 -135t69.5 -184.5t21.5 -214.5q0 -207 -76.5 -389.5t-238.5 -304t-375 -121.5q-90 0 -90 90q0 18 10 73
q41 -8 88 -8q199 0 322 159t137 384q-125 -141 -307 -141q-152 0 -259.5 107.5t-107.5 283.5t123 313t328 137z" />
    <glyph glyph-name="uni066A" unicode="&#x66a;" horiz-adv-x="1747" 
d="M395 418q-141 0 -225 84t-84 225t84 224t226 83q141 0 222.5 -83t81.5 -224t-82.5 -225t-222.5 -84zM1352 -20q-140 0 -224 83.5t-84 225.5q0 141 83 224t225 83q141 0 224 -83t83 -224q0 -142 -84 -225.5t-223 -83.5zM1346 973l-531 -674q-127 -160 -289 -391
q-131 41 -131 96q0 25 23 53l528 676q182 234 287 385q57 -8 96 -31.5t39 -58.5q0 -27 -22 -55zM514 715q0 78 -31.5 139t-87.5 61q-53 0 -89 -47t-36 -118q0 -82 33 -145.5t90 -63.5q56 0 88.5 49t32.5 125zM1470 276q0 78 -30.5 139.5t-87.5 61.5q-54 0 -88.5 -48
t-34.5 -118q0 -82 31.5 -145.5t89.5 -63.5q55 0 87.5 49.5t32.5 124.5z" />
    <glyph glyph-name="uni060C" unicode="&#x60c;" horiz-adv-x="494" 
d="M258 309q0 -92 100 -110q21 -39 21 -78q0 -49 -43 -83t-105 -34q-65 0 -112 49t-47 152q0 135 85 247.5t201 112.5q64 0 64 -78q0 -20 -2 -30h-10q-66 0 -109 -45t-43 -103z" />
    <glyph glyph-name="uni061B" unicode="&#x61b;" horiz-adv-x="494" 
d="M258 1055q0 -92 100 -111q21 -39 21 -78q0 -49 -43 -82.5t-105 -33.5q-65 0 -112 49t-47 151q0 135 85 248t201 113q64 0 64 -78q0 -21 -2 -31h-10q-66 0 -109 -45t-43 -102zM221 315q64 0 107 -44t43 -111q0 -66 -44 -112t-105 -46q-62 0 -105 46t-43 112q0 67 43 111
t104 44z" />
    <glyph glyph-name="_1" horiz-adv-x="0" 
 />
    <glyph glyph-name="_2" horiz-adv-x="0" 
 />
    <glyph glyph-name="_3" horiz-adv-x="0" 
 />
    <glyph glyph-name="_4" horiz-adv-x="0" 
 />
  </font>
</defs>
</svg>
